<?xml version="1.0" encoding="UTF-8" standalone="no"?>
<!DOCTYPE svg PUBLIC "-//W3C//DTD SVG 1.1//EN" "http://www.w3.org/Graphics/SVG/1.1/DTD/svg11.dtd">
<svg xmlns="http://www.w3.org/2000/svg" version="1.1" viewBox="0.00 0.00 1587.00 1088.00">
<g stroke-width="2.00" fill="none" stroke-linecap="butt">
<path stroke="#dd8c94" vector-effect="non-scaling-stroke" d="
  M 1518.08 890.24
  A 61.50 61.50 0.0 0 0 1570.67 820.97
  L 1467.72 68.63
  A 61.50 61.50 0.0 0 0 1398.45 16.04
  L 68.71 198.00
  A 61.50 61.50 0.0 0 0 16.12 267.27
  L 119.07 1019.62
  A 61.50 61.50 0.0 0 0 188.34 1072.21
  L 1518.08 890.24"
/>
<path stroke="#dd8c94" vector-effect="non-scaling-stroke" d="
  M 1214.38 228.21
  A 0.34 0.34 0.0 0 1 1214.77 228.50
  L 1243.49 435.61
  A 0.34 0.34 0.0 0 0 1243.88 435.90
  L 1319.55 425.42
  A 0.34 0.34 0.0 0 0 1319.84 425.03
  L 1291.13 217.90
  A 0.34 0.34 0.0 0 1 1291.42 217.51
  L 1354.60 208.77
  A 0.34 0.34 0.0 0 0 1354.89 208.38
  L 1346.64 148.93
  A 0.34 0.34 0.0 0 0 1346.25 148.64
  L 1142.87 176.84
  A 0.34 0.34 0.0 0 0 1142.58 177.23
  L 1150.82 236.66
  A 0.34 0.34 0.0 0 0 1151.21 236.95
  L 1214.38 228.21"
/>
<path stroke="#dd8c94" vector-effect="non-scaling-stroke" d="
  M 1016.19 421.53
  L 1105.53 409.15
  A 0.61 0.61 0.0 0 1 1106.19 409.56
  L 1120.46 452.56
  A 0.58 0.58 0.0 0 0 1121.08 452.95
  L 1196.24 442.54
  A 0.52 0.51 -13.0 0 0 1196.66 441.88
  Q 1173.13 366.07 1139.78 300.70
  C 1119.20 260.36 1095.11 222.94 1066.29 187.92
  Q 1065.96 187.53 1065.46 187.60
  L 993.71 197.55
  Q 993.18 197.62 992.96 198.11
  Q 982.92 220.38 975.38 244.65
  C 963.41 283.13 954.93 325.60 948.26 366.64
  Q 939.19 422.44 936.52 478.06
  Q 936.49 478.55 936.99 478.48
  L 1012.46 468.02
  Q 1012.92 467.96 1012.92 467.49
  Q 1013.36 444.75 1015.57 422.18
  Q 1015.63 421.61 1016.19 421.53"
/>
<path stroke="#dd8c94" vector-effect="non-scaling-stroke" d="
  M 781.98 288.48
  A 0.32 0.32 0.0 0 1 782.26 288.12
  L 879.74 274.60
  A 0.32 0.32 0.0 0 0 880.02 274.24
  L 871.77 214.76
  A 0.32 0.32 0.0 0 0 871.41 214.48
  L 697.57 238.59
  A 0.32 0.32 0.0 0 0 697.29 238.95
  L 734.36 506.23
  A 0.32 0.32 0.0 0 0 734.72 506.51
  L 915.41 481.44
  A 0.32 0.32 0.0 0 0 915.69 481.08
  L 907.43 421.60
  A 0.32 0.32 0.0 0 0 907.07 421.32
  L 802.74 435.80
  A 0.32 0.32 0.0 0 1 802.38 435.52
  L 795.33 384.80
  A 0.32 0.32 0.0 0 1 795.61 384.44
  L 887.69 371.67
  A 0.32 0.32 0.0 0 0 887.97 371.31
  L 879.71 311.83
  A 0.32 0.32 0.0 0 0 879.35 311.55
  L 787.27 324.32
  A 0.32 0.32 0.0 0 1 786.91 324.04
  L 781.98 288.48"
/>
<path stroke="#dd8c94" vector-effect="non-scaling-stroke" d="
  M 448.66 386.93
  Q 448.54 386.06 449.23 386.60
  C 482.07 412.12 501.95 452.48 514.22 491.28
  A 0.68 0.68 0.0 0 0 514.96 491.75
  L 562.22 485.20
  Q 562.69 485.14 562.70 484.66
  Q 563.34 462.24 567.45 439.70
  C 572.22 413.61 581.63 387.78 596.69 366.31
  Q 597.30 365.44 597.44 366.50
  L 619.01 522.06
  Q 619.08 522.55 619.56 522.48
  L 694.91 512.03
  Q 695.44 511.95 695.36 511.42
  L 658.33 244.34
  A 0.30 0.29 -7.7 0 0 657.99 244.09
  L 582.49 254.55
  Q 581.91 254.63 581.54 255.08
  Q 571.71 267.08 563.60 280.89
  C 551.66 301.21 541.15 323.64 533.03 346.43
  Q 527.25 362.63 524.53 379.71
  Q 524.06 382.61 522.76 379.97
  Q 513.54 361.35 499.91 343.08
  C 480.43 316.97 459.41 294.08 434.49 276.05
  Q 433.37 275.24 432.02 275.43
  Q 395.52 280.48 357.27 285.77
  Q 356.81 285.83 356.88 286.29
  L 393.92 553.42
  Q 393.97 553.76 394.31 553.71
  L 469.95 543.22
  A 0.37 0.37 0.0 0 0 470.27 542.80
  L 448.66 386.93"
/>
<path stroke="#dd8c94" vector-effect="non-scaling-stroke" d="
  M 265.83 350.63
  A 0.30 0.30 0.0 0 1 265.57 350.97
  L 239.58 354.59
  A 0.30 0.30 0.0 0 1 239.24 354.33
  L 232.63 306.73
  A 0.30 0.30 0.0 0 0 232.29 306.47
  L 201.53 310.74
  A 0.30 0.30 0.0 0 0 201.27 311.08
  L 207.87 358.68
  A 0.30 0.30 0.0 0 1 207.61 359.02
  L 189.50 361.53
  A 0.30 0.30 0.0 0 1 189.16 361.27
  L 182.17 310.85
  A 0.30 0.30 0.0 0 0 181.83 310.59
  L 151.07 314.88
  A 0.30 0.30 0.0 0 0 150.81 315.22
  L 163.31 405.42
  A 0.30 0.30 0.0 0 0 163.65 405.68
  L 302.44 386.43
  A 0.30 0.30 0.0 0 0 302.70 386.09
  L 289.70 292.33
  A 0.30 0.30 0.0 0 0 289.36 292.07
  L 258.59 296.31
  A 0.30 0.30 0.0 0 0 258.33 296.65
  L 265.83 350.63"
/>
<path stroke="#dd8c94" vector-effect="non-scaling-stroke" d="
  M 243.49 463.52
  A 0.39 0.39 0.0 0 1 243.83 463.08
  L 311.68 453.68
  A 0.39 0.39 0.0 0 0 312.02 453.24
  L 306.61 414.21
  A 0.39 0.39 0.0 0 0 306.17 413.87
  L 167.55 433.10
  A 0.39 0.39 0.0 0 0 167.21 433.54
  L 172.65 472.56
  A 0.39 0.39 0.0 0 0 173.09 472.90
  L 211.69 467.54
  A 0.39 0.39 0.0 0 1 212.13 467.88
  L 218.31 512.45
  A 0.39 0.39 0.0 0 1 217.97 512.89
  L 179.37 518.22
  A 0.39 0.39 0.0 0 0 179.03 518.66
  L 184.44 557.71
  A 0.39 0.39 0.0 0 0 184.88 558.05
  L 323.49 538.82
  A 0.39 0.39 0.0 0 0 323.83 538.38
  L 318.41 499.36
  A 0.39 0.39 0.0 0 0 317.97 499.02
  L 250.11 508.43
  A 0.39 0.39 0.0 0 1 249.67 508.09
  L 243.49 463.52"
/>
<path stroke="#dd8c94" vector-effect="non-scaling-stroke" d="
  M 1340.96 534.22
  A 0.28 0.28 0.0 0 1 1340.50 534.47
  Q 1333.33 528.30 1325.47 522.77
  Q 1304.57 508.04 1281.85 496.83
  Q 1268.78 490.38 1256.74 486.47
  Q 1254.84 485.85 1253.01 486.11
  Q 1225.49 489.91 1198.36 493.67
  Q 1197.85 493.74 1197.92 494.26
  L 1227.17 705.19
  Q 1227.29 706.09 1228.19 705.96
  L 1283.77 698.26
  Q 1284.23 698.20 1284.16 697.74
  L 1264.61 556.71
  A 0.31 0.31 0.0 0 1 1265.06 556.39
  Q 1311.09 579.59 1349.02 614.61
  Q 1349.71 615.24 1350.44 615.88
  Q 1352.54 617.68 1352.89 620.21
  Q 1357.61 654.31 1362.11 686.86
  A 0.55 0.55 0.0 0 0 1362.73 687.32
  L 1418.44 679.58
  A 0.69 0.69 0.0 0 0 1419.03 678.81
  L 1389.78 467.91
  Q 1389.68 467.15 1388.92 467.25
  L 1333.23 474.97
  Q 1332.75 475.04 1332.82 475.51
  L 1340.96 534.22"
/>
<path stroke="#dd8c94" vector-effect="non-scaling-stroke" d="
  M 1109.81 632.68
  A 0.33 0.33 0.0 0 1 1110.09 632.30
  L 1178.49 622.83
  A 0.33 0.33 0.0 0 0 1178.77 622.45
  L 1172.25 575.41
  A 0.33 0.33 0.0 0 0 1171.87 575.13
  L 1103.47 584.61
  A 0.33 0.33 0.0 0 1 1103.09 584.33
  L 1099.22 556.35
  A 0.33 0.33 0.0 0 1 1099.50 555.97
  L 1171.94 545.95
  A 0.33 0.33 0.0 0 0 1172.22 545.57
  L 1165.69 498.53
  A 0.33 0.33 0.0 0 0 1165.31 498.25
  L 1035.96 516.18
  A 0.33 0.33 0.0 0 0 1035.68 516.56
  L 1065.02 728.25
  A 0.33 0.33 0.0 0 0 1065.40 728.53
  L 1199.87 709.89
  A 0.33 0.33 0.0 0 0 1200.15 709.51
  L 1193.64 662.49
  A 0.33 0.33 0.0 0 0 1193.26 662.21
  L 1115.72 672.95
  A 0.33 0.33 0.0 0 1 1115.34 672.67
  L 1109.81 632.68"
/>
<path stroke="#dd8c94" vector-effect="non-scaling-stroke" d="
  M 934.37 658.60
  A 0.19 0.19 0.0 0 1 934.02 658.64
  Q 909.09 616.63 892.57 570.23
  Q 885.95 551.63 881.47 538.13
  Q 881.30 537.61 880.77 537.69
  L 822.30 545.81
  A 0.33 0.33 0.0 0 0 822.03 546.23
  C 844.21 618.59 882.15 685.84 925.21 747.76
  A 0.35 0.34 -21.4 0 0 925.54 747.90
  L 966.57 742.23
  A 0.62 0.62 0.0 0 0 967.07 741.83
  C 983.77 695.87 995.06 648.93 1003.01 600.38
  Q 1009.60 560.17 1011.44 520.07
  Q 1011.46 519.56 1010.97 519.63
  L 952.52 527.75
  Q 952.00 527.82 952.00 528.35
  C 951.76 572.35 946.52 616.62 934.37 658.60"
/>
<path stroke="#dd8c94" vector-effect="non-scaling-stroke" d="
  M 733.73 738.11
  L 800.01 728.94
  A 0.47 0.47 0.0 0 1 800.53 729.26
  L 811.39 763.24
  Q 811.55 763.74 812.07 763.67
  L 867.95 755.94
  Q 868.43 755.87 868.29 755.41
  C 846.67 683.47 815.59 612.62 769.39 553.52
  A 0.68 0.67 -22.5 0 0 768.75 553.26
  L 715.48 560.64
  Q 714.86 560.73 714.62 561.30
  Q 712.67 565.85 710.93 570.52
  Q 701.30 596.43 695.25 623.67
  Q 681.37 686.23 676.31 749.53
  Q 675.00 765.94 674.45 782.24
  Q 674.43 782.76 674.94 782.69
  L 730.72 774.97
  A 0.79 0.78 86.6 0 0 731.40 774.20
  Q 731.60 756.07 733.06 738.81
  Q 733.11 738.19 733.73 738.11"
/>
<path stroke="#dd8c94" vector-effect="non-scaling-stroke" d="
  M 469.86 684.77
  Q 474.43 688.38 478.62 692.80
  C 498.13 713.36 510.68 740.56 519.01 767.92
  Q 519.18 768.46 519.74 768.38
  L 554.72 763.52
  Q 555.20 763.45 555.21 762.97
  C 555.82 731.01 562.11 696.42 579.69 669.73
  Q 580.19 668.97 580.31 669.87
  L 597.36 792.92
  Q 597.43 793.43 597.94 793.36
  L 653.82 785.61
  A 0.56 0.56 0.0 0 0 654.29 784.98
  L 624.99 573.68
  Q 624.92 573.19 624.43 573.26
  L 568.49 581.02
  Q 567.98 581.09 567.67 581.50
  Q 562.25 588.57 558.05 595.65
  C 548.30 612.08 540.41 630.01 533.86 648.22
  Q 528.11 664.21 525.88 680.58
  A 0.31 0.31 0.0 0 1 525.53 680.85
  Q 525.11 680.81 524.93 680.43
  Q 521.10 671.97 516.32 664.15
  Q 502.69 641.88 483.83 620.91
  Q 471.55 607.25 458.15 597.06
  C 457.24 596.37 456.51 596.53 455.49 596.68
  Q 428.66 600.45 400.83 604.23
  Q 400.31 604.30 400.38 604.83
  L 429.66 815.96
  Q 429.76 816.68 430.48 816.58
  L 485.94 808.90
  Q 486.69 808.80 486.59 808.04
  L 469.52 684.97
  Q 469.45 684.45 469.86 684.77"
/>
<path stroke="#dd8c94" vector-effect="non-scaling-stroke" d="
  M 224.16 611.52
  A 0.31 0.31 0.0 0 1 223.81 611.25
  L 219.31 578.66
  A 0.31 0.31 0.0 0 0 218.96 578.39
  L 188.21 582.67
  A 0.31 0.31 0.0 0 0 187.94 583.02
  L 202.59 688.59
  A 0.31 0.31 0.0 0 0 202.94 688.86
  L 233.69 684.60
  A 0.31 0.31 0.0 0 0 233.96 684.25
  L 229.41 651.67
  A 0.31 0.31 0.0 0 1 229.68 651.32
  L 337.10 636.42
  A 0.31 0.31 0.0 0 0 337.37 636.07
  L 331.93 596.88
  A 0.31 0.31 0.0 0 0 331.58 596.61
  L 224.16 611.52"
/>
<path stroke="#dd8c94" vector-effect="non-scaling-stroke" d="
  M 319.47 721.07
  Q 318.46 721.47 319.00 720.53
  L 326.16 708.14
  Q 326.80 707.02 325.68 707.67
  C 318.60 711.78 308.08 721.28 310.98 730.14
  Q 311.17 730.72 310.79 731.19
  L 308.90 733.54
  A 1.02 1.01 -57.0 0 1 307.65 733.81
  Q 302.06 730.99 294.96 731.89
  C 292.12 732.26 291.49 735.22 293.51 737.13
  Q 296.30 739.78 299.78 741.55
  Q 300.39 741.86 299.86 742.29
  Q 288.58 751.57 274.01 752.75
  Q 269.92 753.08 265.93 753.18
  Q 248.29 753.63 232.07 761.14
  Q 230.49 761.87 228.86 762.87
  C 226.19 764.51 223.50 765.91 220.46 766.79
  Q 217.01 767.79 213.44 768.83
  Q 212.89 768.99 212.97 769.55
  L 226.05 865.15
  Q 226.12 865.66 226.63 865.60
  L 238.43 864.24
  Q 238.95 864.18 239.13 864.67
  C 241.57 871.09 244.76 880.30 243.46 887.24
  Q 242.09 894.58 244.41 900.03
  C 246.78 905.62 246.86 913.61 245.92 919.20
  Q 244.96 924.90 245.98 930.70
  A 1.41 1.38 -29.8 0 1 245.65 931.87
  Q 244.89 932.73 244.42 933.74
  Q 243.98 934.68 245.01 934.52
  L 247.17 934.19
  Q 247.75 934.10 247.91 934.67
  Q 248.59 937.18 248.07 939.54
  Q 247.94 940.10 248.17 940.63
  Q 250.36 945.77 255.47 946.12
  Q 263.27 946.66 271.52 944.74
  Q 273.26 944.33 272.67 942.65
  C 271.21 938.50 266.79 937.60 264.43 934.36
  Q 262.95 932.32 260.89 930.88
  Q 260.46 930.57 260.28 930.08
  Q 259.75 928.60 259.49 927.05
  Q 257.78 916.77 256.86 905.26
  Q 256.82 904.69 257.09 904.20
  C 260.53 898.00 262.21 891.57 261.55 884.49
  Q 261.18 880.49 261.95 876.57
  Q 262.31 874.75 262.94 876.49
  Q 264.86 881.81 265.33 886.79
  C 265.67 890.41 268.30 892.60 269.56 895.82
  Q 274.08 907.41 273.52 919.65
  Q 273.41 922.22 274.82 924.67
  Q 275.10 925.16 275.06 925.73
  L 274.86 928.71
  A 1.03 1.03 0.0 0 0 276.55 929.57
  C 278.45 927.98 280.54 928.82 280.95 931.08
  C 281.53 934.19 282.13 937.29 286.23 937.03
  Q 291.72 936.69 296.91 936.38
  Q 299.06 936.25 301.00 935.35
  A 0.85 0.84 72.8 0 0 301.47 934.44
  Q 301.02 932.04 299.34 930.35
  Q 295.22 926.22 290.10 923.07
  Q 288.46 922.07 287.45 920.35
  Q 282.39 911.75 280.44 904.21
  Q 279.95 902.29 280.21 901.36
  Q 282.44 893.36 281.56 885.17
  Q 280.80 878.03 280.37 871.46
  Q 280.33 870.81 280.98 870.73
  C 291.83 869.51 298.27 862.11 300.99 852.03
  Q 308.64 823.60 318.20 802.61
  C 319.37 800.04 322.75 792.94 325.67 792.76
  Q 341.67 791.76 355.89 785.77
  Q 357.01 785.30 358.04 785.60
  C 360.92 786.43 363.91 786.53 366.76 785.68
  C 368.66 785.11 370.04 783.78 371.81 782.96
  C 377.83 780.17 378.87 775.38 377.22 769.18
  Q 376.08 764.87 371.87 764.75
  C 370.58 764.71 369.45 763.92 368.50 763.14
  Q 359.87 756.07 350.71 747.83
  A 1.13 1.10 -70.2 0 1 350.34 747.02
  C 350.12 739.07 341.89 733.61 334.89 731.09
  Q 334.33 730.89 334.06 730.36
  Q 332.95 728.14 333.30 725.39
  Q 333.35 724.96 333.70 724.69
  C 339.23 720.38 344.14 715.12 345.14 707.99
  Q 345.34 706.57 344.32 707.58
  Q 337.60 714.23 331.51 718.61
  Q 329.82 719.83 327.75 720.54
  Q 327.21 720.73 326.66 720.60
  Q 322.92 719.72 319.47 721.07"
/>
<path stroke="#dd8c94" vector-effect="non-scaling-stroke" d="
  M 1420.00 754.21
  L 1427.34 753.16
  Q 1428.87 752.94 1428.68 751.40
  L 1428.14 747.00
  Q 1427.91 745.15 1426.06 745.41
  L 1399.58 749.08
  Q 1397.74 749.33 1398.02 751.18
  L 1398.67 755.51
  Q 1398.91 757.06 1400.47 756.86
  L 1407.69 755.96
  Q 1408.26 755.89 1408.34 756.45
  L 1411.25 777.26
  A 1.11 1.11 0.0 0 0 1412.50 778.21
  L 1421.31 777.00
  A 1.38 1.37 82.3 0 0 1422.49 775.44
  L 1419.61 754.74
  Q 1419.55 754.28 1420.00 754.21"
/>
<path stroke="#dd8c94" vector-effect="non-scaling-stroke" d="
  M 1371.31 779.42
  L 1384.93 777.53
  Q 1385.45 777.46 1385.76 777.88
  L 1388.03 780.94
  A 1.30 1.28 -21.8 0 0 1389.24 781.45
  L 1398.47 780.15
  A 1.41 1.40 67.8 0 0 1399.40 777.92
  L 1380.53 752.74
  A 1.89 1.89 0.0 0 0 1378.77 751.99
  L 1372.23 752.85
  A 1.69 1.68 7.3 0 0 1370.90 753.87
  Q 1364.47 769.32 1358.64 783.63
  Q 1358.35 784.35 1358.44 784.55
  A 1.61 1.42 72.7 0 0 1360.00 785.50
  Q 1363.90 784.97 1368.30 784.33
  A 1.25 1.23 -83.5 0 0 1369.29 783.53
  L 1370.63 779.97
  Q 1370.81 779.49 1371.31 779.42"
/>
<path stroke="#dd8c94" vector-effect="non-scaling-stroke" d="
  M 1328.90 767.23
  L 1341.71 765.43
  Q 1342.92 765.26 1342.78 764.04
  L 1342.17 758.66
  A 1.57 1.56 82.9 0 0 1340.40 757.28
  L 1317.53 760.45
  A 1.34 1.34 0.0 0 0 1316.38 761.97
  L 1320.18 789.44
  A 1.56 1.55 -7.8 0 0 1321.93 790.76
  L 1345.44 787.51
  Q 1347.14 787.28 1346.91 785.58
  L 1346.26 780.70
  A 1.62 1.61 82.3 0 0 1344.45 779.32
  L 1330.93 781.16
  Q 1330.50 781.22 1330.41 780.80
  Q 1330.14 779.49 1330.33 778.45
  Q 1330.37 778.21 1330.61 778.18
  L 1341.31 776.67
  Q 1342.61 776.49 1342.43 775.19
  L 1341.65 769.67
  Q 1341.46 768.38 1340.17 768.55
  L 1329.36 770.03
  A 0.48 0.48 0.0 0 1 1328.82 769.60
  L 1328.61 767.60
  Q 1328.58 767.27 1328.90 767.23"
/>
<path stroke="#dd8c94" vector-effect="non-scaling-stroke" d="
  M 1273.54 782.47
  Q 1273.40 781.47 1274.00 782.28
  L 1283.77 795.33
  Q 1284.17 795.86 1284.84 795.80
  L 1288.70 795.44
  A 1.49 1.47 -82.1 0 0 1289.93 794.50
  L 1295.73 779.38
  Q 1296.20 778.16 1296.37 779.46
  L 1298.11 792.45
  Q 1298.32 793.97 1299.84 793.78
  L 1307.43 792.82
  Q 1308.99 792.63 1308.77 791.07
  L 1304.93 763.40
  A 1.17 1.16 82.3 0 0 1303.63 762.40
  L 1293.92 763.72
  Q 1293.31 763.80 1293.07 764.35
  L 1285.37 781.46
  Q 1285.11 782.03 1284.71 781.55
  L 1272.56 767.23
  Q 1272.16 766.76 1271.55 766.84
  L 1262.25 768.09
  A 1.48 1.48 0.0 0 0 1260.98 769.77
  L 1264.81 797.45
  A 1.24 1.23 81.9 0 0 1266.21 798.51
  L 1274.33 797.34
  A 1.27 1.27 0.0 0 0 1275.41 795.91
  L 1273.54 782.47"
/>
<path stroke="#dd8c94" vector-effect="non-scaling-stroke" d="
  M 1207.86 795.70
  L 1212.95 795.15
  Q 1213.65 795.08 1214.07 795.64
  L 1220.44 804.13
  A 1.35 1.35 0.0 0 0 1221.69 804.66
  L 1231.79 803.27
  A 1.33 1.32 66.4 0 0 1232.63 801.11
  L 1225.46 792.39
  A 1.50 1.34 -3.1 0 0 1225.05 792.06
  L 1222.81 790.93
  Q 1222.07 790.55 1222.82 790.20
  Q 1226.65 788.42 1227.12 784.90
  C 1228.15 777.16 1221.80 773.73 1215.10 774.65
  Q 1204.74 776.09 1194.56 777.51
  A 1.48 1.48 0.0 0 0 1193.29 779.19
  L 1197.07 806.54
  Q 1197.29 808.06 1198.81 807.85
  L 1207.51 806.64
  A 1.24 1.23 82.1 0 0 1208.56 805.24
  L 1207.33 796.38
  Q 1207.24 795.77 1207.86 795.70"
/>
<path stroke="#dd8c94" vector-effect="non-scaling-stroke" d="
  M 1168.97 800.57
  L 1179.63 799.11
  Q 1181.31 798.88 1181.07 797.21
  L 1180.42 792.46
  Q 1180.18 790.73 1178.45 790.97
  L 1167.90 792.43
  Q 1167.58 792.48 1167.54 792.15
  L 1167.29 789.93
  Q 1167.25 789.61 1167.57 789.57
  L 1180.06 787.87
  Q 1181.73 787.65 1181.50 785.98
  L 1180.84 781.03
  Q 1180.62 779.43 1179.03 779.66
  L 1156.19 782.83
  A 1.31 1.30 82.1 0 0 1155.08 784.31
  L 1158.90 811.94
  A 1.41 1.41 0.0 0 0 1160.50 813.15
  L 1184.33 809.86
  Q 1185.79 809.66 1185.61 808.19
  L 1184.96 802.99
  Q 1184.77 801.44 1183.23 801.65
  L 1169.47 803.57
  A 0.31 0.31 0.0 0 1 1169.12 803.30
  L 1168.80 800.79
  Q 1168.78 800.59 1168.97 800.57"
/>
<path stroke="#dd8c94" vector-effect="non-scaling-stroke" d="
  M 1123.67 798.03
  L 1122.33 788.71
  A 1.21 1.21 0.0 0 0 1120.96 787.68
  L 1112.23 788.93
  A 1.41 1.41 0.0 0 0 1111.03 790.52
  L 1114.85 818.07
  Q 1115.05 819.45 1116.42 819.26
  L 1124.60 818.14
  Q 1126.41 817.89 1126.16 816.08
  L 1124.89 806.81
  A 0.34 0.34 0.0 0 1 1125.19 806.43
  L 1134.37 805.16
  Q 1134.69 805.12 1134.74 805.44
  L 1136.03 814.77
  Q 1136.28 816.52 1138.03 816.28
  L 1146.37 815.10
  A 1.32 1.32 0.0 0 0 1147.50 813.61
  L 1143.66 786.02
  A 1.45 1.44 82.1 0 0 1142.03 784.78
  L 1133.78 785.93
  Q 1132.07 786.17 1132.31 787.88
  L 1133.56 796.71
  Q 1133.60 796.96 1133.35 796.99
  L 1124.01 798.29
  Q 1123.72 798.33 1123.67 798.03"
/>
<path stroke="#dd8c94" vector-effect="non-scaling-stroke" d="
  M 1083.23 801.41
  Q 1083.54 800.48 1084.50 800.26
  Q 1090.11 798.96 1097.02 801.24
  A 1.48 1.48 0.0 0 0 1098.91 799.46
  L 1097.25 793.02
  A 1.16 1.15 -2.7 0 0 1096.31 792.17
  C 1088.67 790.93 1071.99 791.54 1073.30 803.55
  Q 1073.97 809.79 1080.14 811.21
  Q 1084.86 812.30 1090.30 812.38
  Q 1091.24 812.40 1092.01 812.90
  A 0.98 0.98 0.0 0 1 1091.94 814.59
  C 1087.45 816.98 1081.36 815.22 1076.58 813.94
  A 0.96 0.94 16.5 0 0 1075.44 814.55
  C 1074.85 816.30 1076.33 820.78 1076.83 822.76
  A 1.10 1.09 85.7 0 0 1077.77 823.58
  Q 1084.16 824.30 1090.51 823.37
  C 1097.44 822.34 1103.99 818.06 1102.03 810.03
  C 1100.33 803.09 1092.36 802.75 1086.51 802.65
  Q 1084.98 802.62 1083.50 802.00
  Q 1083.09 801.83 1083.23 801.41"
/>
<path stroke="#dd8c94" vector-effect="non-scaling-stroke" d="
  M 1057.25 800.62
  C 1050.87 795.99 1039.91 797.54 1033.32 800.42
  Q 1024.08 804.47 1025.12 815.51
  C 1026.09 825.87 1032.44 830.17 1042.50 829.78
  C 1053.03 829.36 1063.81 825.47 1062.89 812.74
  C 1062.57 808.28 1060.97 803.33 1057.25 800.62"
/>
<path stroke="#dd8c94" vector-effect="non-scaling-stroke" d="
  M 995.28 824.95
  L 1007.76 833.82
  Q 1008.40 834.28 1009.18 834.16
  Q 1014.52 833.38 1019.78 832.67
  Q 1020.92 832.52 1020.71 831.27
  A 1.74 1.71 -77.3 0 0 1020.02 830.16
  L 1003.64 818.48
  A 0.42 0.41 -54.4 0 1 1003.55 817.90
  L 1012.43 805.39
  Q 1014.49 802.48 1010.96 802.96
  L 1003.01 804.05
  Q 1001.53 804.25 1000.70 805.48
  L 994.39 814.80
  Q 993.52 816.10 993.30 814.55
  L 992.23 807.05
  A 1.49 1.49 0.0 0 0 990.55 805.78
  L 982.48 806.90
  Q 980.83 807.13 981.06 808.78
  L 984.81 835.90
  Q 985.04 837.51 986.65 837.28
  L 994.77 836.14
  A 1.48 1.48 0.0 0 0 996.04 834.47
  L 994.78 825.25
  Q 994.67 824.52 995.28 824.95"
/>
<path stroke="#dd8c94" vector-effect="non-scaling-stroke" d="
  M 941.53 820.58
  L 949.14 819.44
  Q 950.43 819.24 950.22 817.96
  L 949.32 812.59
  Q 949.14 811.53 948.08 811.68
  L 920.77 815.48
  Q 919.23 815.69 919.43 817.24
  L 920.02 821.87
  Q 920.23 823.54 921.89 823.30
  L 929.04 822.27
  Q 929.65 822.18 929.74 822.79
  L 932.61 843.29
  Q 932.81 844.73 934.25 844.53
  L 942.64 843.37
  A 1.46 1.45 82.1 0 0 943.87 841.73
  L 941.04 821.24
  Q 940.96 820.67 941.53 820.58"
/>
<path stroke="#dd8c94" vector-effect="non-scaling-stroke" d="
  M 888.27 828.47
  L 891.06 848.76
  Q 891.30 850.48 893.02 850.25
  L 900.97 849.15
  Q 902.61 848.92 902.38 847.28
  L 899.57 826.96
  Q 899.49 826.40 900.05 826.32
  L 907.25 825.27
  Q 908.79 825.04 908.60 823.50
  L 908.06 818.94
  Q 907.86 817.27 906.19 817.50
  L 879.28 821.22
  Q 877.74 821.43 877.95 822.97
  L 878.59 827.62
  Q 878.81 829.19 880.38 828.99
  L 887.72 828.04
  Q 888.21 827.98 888.27 828.47"
/>
<path stroke="#dd8c94" vector-effect="non-scaling-stroke" d="
  M 851.21 851.53
  L 864.78 849.68
  Q 865.37 849.60 865.75 850.06
  Q 866.74 851.28 867.55 852.60
  Q 868.23 853.68 869.49 853.52
  Q 874.36 852.89 878.64 852.17
  Q 879.80 851.97 879.49 850.47
  A 1.40 1.25 23.4 0 0 879.25 849.95
  L 860.29 824.56
  A 1.31 1.29 67.5 0 0 859.08 824.05
  L 852.29 824.94
  A 1.94 1.92 7.1 0 0 850.76 826.12
  L 838.32 856.20
  A 0.88 0.87 -78.6 0 0 839.12 857.41
  Q 843.19 857.45 848.23 856.38
  Q 849.04 856.21 849.33 855.43
  L 850.57 852.05
  Q 850.73 851.60 851.21 851.53"
/>
<path stroke="#dd8c94" vector-effect="non-scaling-stroke" d="
  M 809.56 851.95
  L 806.89 832.49
  A 1.23 1.23 0.0 0 0 805.49 831.44
  L 796.69 832.69
  Q 795.49 832.86 795.65 834.07
  L 799.53 861.96
  A 1.24 1.24 0.0 0 0 800.94 863.02
  L 825.81 859.56
  Q 827.01 859.39 826.86 858.19
  L 826.07 851.70
  Q 825.89 850.25 824.45 850.45
  L 810.17 852.41
  Q 809.63 852.48 809.56 851.95"
/>
<path stroke="#dd8c94" vector-effect="non-scaling-stroke" d="
  M 777.00 858.10
  Q 776.96 858.24 776.82 858.29
  C 770.51 860.60 761.89 860.83 761.44 851.87
  C 761.16 846.19 767.68 843.55 772.34 843.33
  Q 776.94 843.11 781.77 843.69
  Q 783.81 843.93 783.28 841.95
  L 782.03 837.23
  A 1.85 1.85 0.0 0 0 780.40 835.87
  C 767.84 834.79 750.80 836.88 750.25 852.17
  C 749.92 861.30 755.31 867.26 764.63 867.69
  Q 776.13 868.23 787.04 863.43
  Q 788.00 863.00 787.86 861.97
  L 786.07 848.71
  A 1.43 1.43 0.0 0 0 784.45 847.48
  L 771.97 849.21
  Q 770.53 849.41 770.71 850.85
  Q 771.00 853.21 771.35 855.63
  Q 771.65 857.67 775.86 856.41
  A 0.92 0.92 0.0 0 1 777.01 857.03
  Q 777.16 857.54 777.00 858.10"
/>
<path stroke="#dd8c94" vector-effect="non-scaling-stroke" d="
  M 698.05 855.91
  L 689.73 848.34
  A 2.39 2.38 -28.0 0 0 687.79 847.75
  Q 682.72 848.48 678.10 849.13
  A 1.53 1.48 -4.0 0 0 676.78 850.60
  Q 676.77 850.89 677.47 851.52
  Q 685.16 858.44 692.87 865.38
  A 1.38 1.37 16.8 0 1 693.33 866.23
  L 694.74 876.33
  Q 694.93 877.73 696.34 877.54
  L 705.17 876.28
  Q 706.45 876.10 706.27 874.83
  L 704.82 864.54
  Q 704.75 864.05 705.01 863.64
  Q 710.71 854.76 715.94 846.56
  Q 716.44 845.79 716.20 844.85
  A 1.14 1.14 0.0 0 0 714.94 844.00
  L 705.37 845.34
  Q 704.82 845.41 704.55 845.89
  L 698.97 855.76
  Q 698.61 856.41 698.05 855.91"
/>
<path stroke="#dd8c94" vector-effect="non-scaling-stroke" d="
  M 659.21 859.65
  L 666.21 858.74
  Q 667.92 858.51 667.69 856.80
  L 667.09 852.31
  Q 666.88 850.69 665.25 850.91
  L 638.23 854.65
  Q 636.82 854.85 637.01 856.27
  L 637.67 861.15
  Q 637.88 862.67 639.40 862.46
  L 646.55 861.44
  Q 647.28 861.34 647.38 862.06
  L 650.21 882.62
  A 1.25 1.25 0.0 0 0 651.62 883.69
  L 660.63 882.48
  A 1.05 1.05 0.0 0 0 661.53 881.30
  L 658.64 860.41
  Q 658.54 859.74 659.21 859.65"
/>
<path stroke="#dd8c94" vector-effect="non-scaling-stroke" d="
  M 625.2857 857.6831
  A 1.22 1.22 0.0 0 0 623.9096 856.6423
  L 616.6591 857.6484
  A 1.22 1.22 0.0 0 0 615.6183 859.0245
  L 619.4943 886.9569
  A 1.22 1.22 0.0 0 0 620.8704 887.9977
  L 628.1209 886.9916
  A 1.22 1.22 0.0 0 0 629.1617 885.6155
  L 625.2857 857.6831"
/>
<path stroke="#dd8c94" vector-effect="non-scaling-stroke" d="
  M 590.67 882.19
  L 588.11 863.23
  A 1.60 1.59 82.1 0 0 586.31 861.86
  L 578.22 862.96
  A 1.61 1.60 -7.9 0 0 576.84 864.77
  L 580.69 892.43
  A 1.11 1.10 -7.8 0 0 581.94 893.37
  L 606.50 890.00
  Q 608.25 889.76 608.00 888.00
  L 607.20 882.27
  Q 606.97 880.57 605.27 880.81
  L 591.43 882.76
  Q 590.76 882.85 590.67 882.19"
/>
<path stroke="#dd8c94" vector-effect="non-scaling-stroke" d="
  M 555.25 892.58
  A 1.38 1.38 0.0 0 1 556.56 893.13
  L 558.55 895.89
  A 1.38 1.38 0.0 0 0 559.86 896.45
  L 569.08 895.16
  A 1.38 1.38 0.0 0 0 569.99 892.97
  L 550.96 867.45
  A 1.38 1.38 0.0 0 0 549.66 866.91
  L 542.63 867.89
  A 1.38 1.38 0.0 0 0 541.55 868.73
  L 529.16 898.62
  A 1.38 1.38 0.0 0 0 530.63 900.51
  L 538.87 899.36
  A 1.38 1.38 0.0 0 0 539.97 898.46
  L 541.12 895.30
  A 1.38 1.38 0.0 0 1 542.22 894.40
  L 555.25 892.58"
/>
<path stroke="#dd8c94" vector-effect="non-scaling-stroke" d="
  M 499.45 895.72
  C 497.77 895.53 496.59 894.18 496.35 892.56
  Q 495.11 884.25 494.07 876.20
  A 1.53 1.52 82.3 0 0 492.35 874.88
  L 484.61 875.90
  A 1.57 1.56 -7.7 0 0 483.26 877.66
  Q 484.56 887.54 485.94 897.24
  C 486.92 904.11 492.83 905.53 498.71 905.21
  C 505.45 904.84 519.61 903.23 518.32 893.16
  Q 517.13 883.86 515.53 872.95
  A 1.34 1.34 0.0 0 0 514.01 871.82
  L 506.09 872.93
  A 1.59 1.58 81.7 0 0 504.75 874.74
  Q 505.98 882.96 506.98 890.85
  C 507.54 895.27 502.79 896.11 499.45 895.72"
/>
<path stroke="#dd8c94" vector-effect="non-scaling-stroke" d="
  M 470.52 905.04
  Q 474.86 899.79 473.26 891.52
  Q 470.96 879.60 458.37 879.25
  Q 449.59 879.00 442.91 882.45
  C 435.47 886.29 434.41 894.69 436.86 902.03
  C 440.11 911.72 450.31 912.66 458.99 910.84
  Q 459.56 910.73 460.05 911.03
  Q 466.52 914.98 474.58 912.21
  Q 475.15 912.02 475.20 911.41
  L 475.53 906.37
  A 1.06 1.06 0.0 0 0 474.36 905.24
  L 470.83 905.61
  Q 469.98 905.69 470.52 905.04"
/>
<path stroke="#dd8c94" vector-effect="non-scaling-stroke" d="
  M 1082.70 354.35
  C 1072.28 328.59 1058.50 303.84 1042.63 280.86
  A 0.36 0.36 0.0 0 0 1041.99 280.96
  Q 1029.95 320.63 1023.17 362.73
  A 0.47 0.47 0.0 0 0 1023.69 363.27
  L 1082.24 355.16
  Q 1082.98 355.05 1082.70 354.35"
/>
<path stroke="#dd8c94" vector-effect="non-scaling-stroke" d="
  M 782.65 685.38
  C 774.64 665.10 764.52 645.78 752.51 627.28
  A 0.43 0.43 0.0 0 0 751.74 627.40
  Q 743.19 658.23 738.36 691.58
  A 0.39 0.39 0.0 0 0 738.80 692.02
  L 782.29 685.99
  A 0.45 0.45 0.0 0 0 782.65 685.38"
/>
<path stroke="#dd8c94" vector-effect="non-scaling-stroke" d="
  M 1374.11 771.30
  A 0.40 0.40 0.0 0 0 1374.53 771.84
  L 1380.16 771.10
  A 0.40 0.40 0.0 0 0 1380.43 770.46
  L 1376.95 765.78
  A 0.40 0.40 0.0 0 0 1376.26 765.87
  L 1374.11 771.30"
/>
<path stroke="#dd8c94" vector-effect="non-scaling-stroke" d="
  M 1205.30 783.74
  L 1205.97 788.31
  A 0.48 0.48 0.0 0 0 1206.51 788.71
  L 1212.40 787.85
  A 3.99 2.70 -8.3 0 0 1215.96 784.61
  L 1215.93 784.43
  A 3.99 2.70 -8.3 0 0 1211.59 782.33
  L 1205.71 783.19
  A 0.48 0.48 0.0 0 0 1205.30 783.74"
/>
<path stroke="#dd8c94" vector-effect="non-scaling-stroke" d="
  M 1051.3802 812.1943
  A 5.99 5.99 0.0 0 0 1044.5794 807.1436
  L 1041.5127 807.5965
  A 5.99 5.99 0.0 0 0 1036.4620 814.3973
  L 1036.6198 815.4657
  A 5.99 5.99 0.0 0 0 1043.4206 820.5164
  L 1046.4873 820.0635
  A 5.99 5.99 0.0 0 0 1051.5380 813.2627
  L 1051.3802 812.1943"
/>
<path stroke="#dd8c94" vector-effect="non-scaling-stroke" d="
  M 854.03 843.47
  A 0.35 0.35 0.0 0 0 854.40 843.95
  L 860.19 843.22
  A 0.35 0.35 0.0 0 0 860.42 842.67
  L 856.88 837.83
  A 0.35 0.35 0.0 0 0 856.27 837.91
  L 854.03 843.47"
/>
<path stroke="#dd8c94" vector-effect="non-scaling-stroke" d="
  M 544.68 886.41
  A 0.35 0.35 0.0 0 0 545.05 886.88
  L 550.85 886.12
  A 0.35 0.35 0.0 0 0 551.08 885.57
  L 547.49 880.68
  A 0.35 0.35 0.0 0 0 546.88 880.76
  L 544.68 886.41"
/>
<path stroke="#dd8c94" vector-effect="non-scaling-stroke" d="
  M 462.1051 893.8518
  A 6.03 6.03 0.0 0 0 455.3396 888.6604
  L 452.3653 889.0520
  A 6.03 6.03 0.0 0 0 447.1739 895.8175
  L 447.3149 896.8882
  A 6.03 6.03 0.0 0 0 454.0804 902.0796
  L 457.0547 901.6880
  A 6.03 6.03 0.0 0 0 462.2461 894.9225
  L 462.1051 893.8518"
/>
</g>
<path fill="#fafafb" d="
  M 66.72 183.45
  L 1396.47 1.49
  A 76.17 76.17 0.0 0 1 1482.27 66.63
  L 1585.22 818.99
  A 76.17 76.17 0.0 0 1 1520.08 904.79
  L 190.33 1086.76
  A 76.17 76.17 0.0 0 1 104.53 1021.62
  L 1.58 269.25
  A 76.17 76.17 0.0 0 1 66.72 183.45
  Z
  M 1518.08 890.24
  A 61.50 61.50 0.0 0 0 1570.67 820.97
  L 1467.72 68.63
  A 61.50 61.50 0.0 0 0 1398.45 16.04
  L 68.71 198.00
  A 61.50 61.50 0.0 0 0 16.12 267.27
  L 119.07 1019.62
  A 61.50 61.50 0.0 0 0 188.34 1072.21
  L 1518.08 890.24
  Z"
/>
<path fill="#bf1e2d" d="
  M 1518.08 890.24
  L 188.34 1072.21
  A 61.50 61.50 0.0 0 1 119.07 1019.62
  L 16.12 267.27
  A 61.50 61.50 0.0 0 1 68.71 198.00
  L 1398.45 16.04
  A 61.50 61.50 0.0 0 1 1467.72 68.63
  L 1570.67 820.97
  A 61.50 61.50 0.0 0 1 1518.08 890.24
  Z
  M 1214.38 228.21
  A 0.34 0.34 0.0 0 1 1214.77 228.50
  L 1243.49 435.61
  A 0.34 0.34 0.0 0 0 1243.88 435.90
  L 1319.55 425.42
  A 0.34 0.34 0.0 0 0 1319.84 425.03
  L 1291.13 217.90
  A 0.34 0.34 0.0 0 1 1291.42 217.51
  L 1354.60 208.77
  A 0.34 0.34 0.0 0 0 1354.89 208.38
  L 1346.64 148.93
  A 0.34 0.34 0.0 0 0 1346.25 148.64
  L 1142.87 176.84
  A 0.34 0.34 0.0 0 0 1142.58 177.23
  L 1150.82 236.66
  A 0.34 0.34 0.0 0 0 1151.21 236.95
  L 1214.38 228.21
  Z
  M 1016.19 421.53
  L 1105.53 409.15
  A 0.61 0.61 0.0 0 1 1106.19 409.56
  L 1120.46 452.56
  A 0.58 0.58 0.0 0 0 1121.08 452.95
  L 1196.24 442.54
  A 0.52 0.51 -13.0 0 0 1196.66 441.88
  Q 1173.13 366.07 1139.78 300.70
  C 1119.20 260.36 1095.11 222.94 1066.29 187.92
  Q 1065.96 187.53 1065.46 187.60
  L 993.71 197.55
  Q 993.18 197.62 992.96 198.11
  Q 982.92 220.38 975.38 244.65
  C 963.41 283.13 954.93 325.60 948.26 366.64
  Q 939.19 422.44 936.52 478.06
  Q 936.49 478.55 936.99 478.48
  L 1012.46 468.02
  Q 1012.92 467.96 1012.92 467.49
  Q 1013.36 444.75 1015.57 422.18
  Q 1015.63 421.61 1016.19 421.53
  Z
  M 781.98 288.48
  A 0.32 0.32 0.0 0 1 782.26 288.12
  L 879.74 274.60
  A 0.32 0.32 0.0 0 0 880.02 274.24
  L 871.77 214.76
  A 0.32 0.32 0.0 0 0 871.41 214.48
  L 697.57 238.59
  A 0.32 0.32 0.0 0 0 697.29 238.95
  L 734.36 506.23
  A 0.32 0.32 0.0 0 0 734.72 506.51
  L 915.41 481.44
  A 0.32 0.32 0.0 0 0 915.69 481.08
  L 907.43 421.60
  A 0.32 0.32 0.0 0 0 907.07 421.32
  L 802.74 435.80
  A 0.32 0.32 0.0 0 1 802.38 435.52
  L 795.33 384.80
  A 0.32 0.32 0.0 0 1 795.61 384.44
  L 887.69 371.67
  A 0.32 0.32 0.0 0 0 887.97 371.31
  L 879.71 311.83
  A 0.32 0.32 0.0 0 0 879.35 311.55
  L 787.27 324.32
  A 0.32 0.32 0.0 0 1 786.91 324.04
  L 781.98 288.48
  Z
  M 448.66 386.93
  Q 448.54 386.06 449.23 386.60
  C 482.07 412.12 501.95 452.48 514.22 491.28
  A 0.68 0.68 0.0 0 0 514.96 491.75
  L 562.22 485.20
  Q 562.69 485.14 562.70 484.66
  Q 563.34 462.24 567.45 439.70
  C 572.22 413.61 581.63 387.78 596.69 366.31
  Q 597.30 365.44 597.44 366.50
  L 619.01 522.06
  Q 619.08 522.55 619.56 522.48
  L 694.91 512.03
  Q 695.44 511.95 695.36 511.42
  L 658.33 244.34
  A 0.30 0.29 -7.7 0 0 657.99 244.09
  L 582.49 254.55
  Q 581.91 254.63 581.54 255.08
  Q 571.71 267.08 563.60 280.89
  C 551.66 301.21 541.15 323.64 533.03 346.43
  Q 527.25 362.63 524.53 379.71
  Q 524.06 382.61 522.76 379.97
  Q 513.54 361.35 499.91 343.08
  C 480.43 316.97 459.41 294.08 434.49 276.05
  Q 433.37 275.24 432.02 275.43
  Q 395.52 280.48 357.27 285.77
  Q 356.81 285.83 356.88 286.29
  L 393.92 553.42
  Q 393.97 553.76 394.31 553.71
  L 469.95 543.22
  A 0.37 0.37 0.0 0 0 470.27 542.80
  L 448.66 386.93
  Z
  M 265.83 350.63
  A 0.30 0.30 0.0 0 1 265.57 350.97
  L 239.58 354.59
  A 0.30 0.30 0.0 0 1 239.24 354.33
  L 232.63 306.73
  A 0.30 0.30 0.0 0 0 232.29 306.47
  L 201.53 310.74
  A 0.30 0.30 0.0 0 0 201.27 311.08
  L 207.87 358.68
  A 0.30 0.30 0.0 0 1 207.61 359.02
  L 189.50 361.53
  A 0.30 0.30 0.0 0 1 189.16 361.27
  L 182.17 310.85
  A 0.30 0.30 0.0 0 0 181.83 310.59
  L 151.07 314.88
  A 0.30 0.30 0.0 0 0 150.81 315.22
  L 163.31 405.42
  A 0.30 0.30 0.0 0 0 163.65 405.68
  L 302.44 386.43
  A 0.30 0.30 0.0 0 0 302.70 386.09
  L 289.70 292.33
  A 0.30 0.30 0.0 0 0 289.36 292.07
  L 258.59 296.31
  A 0.30 0.30 0.0 0 0 258.33 296.65
  L 265.83 350.63
  Z
  M 243.49 463.52
  A 0.39 0.39 0.0 0 1 243.83 463.08
  L 311.68 453.68
  A 0.39 0.39 0.0 0 0 312.02 453.24
  L 306.61 414.21
  A 0.39 0.39 0.0 0 0 306.17 413.87
  L 167.55 433.10
  A 0.39 0.39 0.0 0 0 167.21 433.54
  L 172.65 472.56
  A 0.39 0.39 0.0 0 0 173.09 472.90
  L 211.69 467.54
  A 0.39 0.39 0.0 0 1 212.13 467.88
  L 218.31 512.45
  A 0.39 0.39 0.0 0 1 217.97 512.89
  L 179.37 518.22
  A 0.39 0.39 0.0 0 0 179.03 518.66
  L 184.44 557.71
  A 0.39 0.39 0.0 0 0 184.88 558.05
  L 323.49 538.82
  A 0.39 0.39 0.0 0 0 323.83 538.38
  L 318.41 499.36
  A 0.39 0.39 0.0 0 0 317.97 499.02
  L 250.11 508.43
  A 0.39 0.39 0.0 0 1 249.67 508.09
  L 243.49 463.52
  Z
  M 1340.96 534.22
  A 0.28 0.28 0.0 0 1 1340.50 534.47
  Q 1333.33 528.30 1325.47 522.77
  Q 1304.57 508.04 1281.85 496.83
  Q 1268.78 490.38 1256.74 486.47
  Q 1254.84 485.85 1253.01 486.11
  Q 1225.49 489.91 1198.36 493.67
  Q 1197.85 493.74 1197.92 494.26
  L 1227.17 705.19
  Q 1227.29 706.09 1228.19 705.96
  L 1283.77 698.26
  Q 1284.23 698.20 1284.16 697.74
  L 1264.61 556.71
  A 0.31 0.31 0.0 0 1 1265.06 556.39
  Q 1311.09 579.59 1349.02 614.61
  Q 1349.71 615.24 1350.44 615.88
  Q 1352.54 617.68 1352.89 620.21
  Q 1357.61 654.31 1362.11 686.86
  A 0.55 0.55 0.0 0 0 1362.73 687.32
  L 1418.44 679.58
  A 0.69 0.69 0.0 0 0 1419.03 678.81
  L 1389.78 467.91
  Q 1389.68 467.15 1388.92 467.25
  L 1333.23 474.97
  Q 1332.75 475.04 1332.82 475.51
  L 1340.96 534.22
  Z
  M 1109.81 632.68
  A 0.33 0.33 0.0 0 1 1110.09 632.30
  L 1178.49 622.83
  A 0.33 0.33 0.0 0 0 1178.77 622.45
  L 1172.25 575.41
  A 0.33 0.33 0.0 0 0 1171.87 575.13
  L 1103.47 584.61
  A 0.33 0.33 0.0 0 1 1103.09 584.33
  L 1099.22 556.35
  A 0.33 0.33 0.0 0 1 1099.50 555.97
  L 1171.94 545.95
  A 0.33 0.33 0.0 0 0 1172.22 545.57
  L 1165.69 498.53
  A 0.33 0.33 0.0 0 0 1165.31 498.25
  L 1035.96 516.18
  A 0.33 0.33 0.0 0 0 1035.68 516.56
  L 1065.02 728.25
  A 0.33 0.33 0.0 0 0 1065.40 728.53
  L 1199.87 709.89
  A 0.33 0.33 0.0 0 0 1200.15 709.51
  L 1193.64 662.49
  A 0.33 0.33 0.0 0 0 1193.26 662.21
  L 1115.72 672.95
  A 0.33 0.33 0.0 0 1 1115.34 672.67
  L 1109.81 632.68
  Z
  M 934.37 658.60
  A 0.19 0.19 0.0 0 1 934.02 658.64
  Q 909.09 616.63 892.57 570.23
  Q 885.95 551.63 881.47 538.13
  Q 881.30 537.61 880.77 537.69
  L 822.30 545.81
  A 0.33 0.33 0.0 0 0 822.03 546.23
  C 844.21 618.59 882.15 685.84 925.21 747.76
  A 0.35 0.34 -21.4 0 0 925.54 747.90
  L 966.57 742.23
  A 0.62 0.62 0.0 0 0 967.07 741.83
  C 983.77 695.87 995.06 648.93 1003.01 600.38
  Q 1009.60 560.17 1011.44 520.07
  Q 1011.46 519.56 1010.97 519.63
  L 952.52 527.75
  Q 952.00 527.82 952.00 528.35
  C 951.76 572.35 946.52 616.62 934.37 658.60
  Z
  M 733.73 738.11
  L 800.01 728.94
  A 0.47 0.47 0.0 0 1 800.53 729.26
  L 811.39 763.24
  Q 811.55 763.74 812.07 763.67
  L 867.95 755.94
  Q 868.43 755.87 868.29 755.41
  C 846.67 683.47 815.59 612.62 769.39 553.52
  A 0.68 0.67 -22.5 0 0 768.75 553.26
  L 715.48 560.64
  Q 714.86 560.73 714.62 561.30
  Q 712.67 565.85 710.93 570.52
  Q 701.30 596.43 695.25 623.67
  Q 681.37 686.23 676.31 749.53
  Q 675.00 765.94 674.45 782.24
  Q 674.43 782.76 674.94 782.69
  L 730.72 774.97
  A 0.79 0.78 86.6 0 0 731.40 774.20
  Q 731.60 756.07 733.06 738.81
  Q 733.11 738.19 733.73 738.11
  Z
  M 469.86 684.77
  Q 474.43 688.38 478.62 692.80
  C 498.13 713.36 510.68 740.56 519.01 767.92
  Q 519.18 768.46 519.74 768.38
  L 554.72 763.52
  Q 555.20 763.45 555.21 762.97
  C 555.82 731.01 562.11 696.42 579.69 669.73
  Q 580.19 668.97 580.31 669.87
  L 597.36 792.92
  Q 597.43 793.43 597.94 793.36
  L 653.82 785.61
  A 0.56 0.56 0.0 0 0 654.29 784.98
  L 624.99 573.68
  Q 624.92 573.19 624.43 573.26
  L 568.49 581.02
  Q 567.98 581.09 567.67 581.50
  Q 562.25 588.57 558.05 595.65
  C 548.30 612.08 540.41 630.01 533.86 648.22
  Q 528.11 664.21 525.88 680.58
  A 0.31 0.31 0.0 0 1 525.53 680.85
  Q 525.11 680.81 524.93 680.43
  Q 521.10 671.97 516.32 664.15
  Q 502.69 641.88 483.83 620.91
  Q 471.55 607.25 458.15 597.06
  C 457.24 596.37 456.51 596.53 455.49 596.68
  Q 428.66 600.45 400.83 604.23
  Q 400.31 604.30 400.38 604.83
  L 429.66 815.96
  Q 429.76 816.68 430.48 816.58
  L 485.94 808.90
  Q 486.69 808.80 486.59 808.04
  L 469.52 684.97
  Q 469.45 684.45 469.86 684.77
  Z
  M 224.16 611.52
  A 0.31 0.31 0.0 0 1 223.81 611.25
  L 219.31 578.66
  A 0.31 0.31 0.0 0 0 218.96 578.39
  L 188.21 582.67
  A 0.31 0.31 0.0 0 0 187.94 583.02
  L 202.59 688.59
  A 0.31 0.31 0.0 0 0 202.94 688.86
  L 233.69 684.60
  A 0.31 0.31 0.0 0 0 233.96 684.25
  L 229.41 651.67
  A 0.31 0.31 0.0 0 1 229.68 651.32
  L 337.10 636.42
  A 0.31 0.31 0.0 0 0 337.37 636.07
  L 331.93 596.88
  A 0.31 0.31 0.0 0 0 331.58 596.61
  L 224.16 611.52
  Z
  M 319.47 721.07
  Q 318.46 721.47 319.00 720.53
  L 326.16 708.14
  Q 326.80 707.02 325.68 707.67
  C 318.60 711.78 308.08 721.28 310.98 730.14
  Q 311.17 730.72 310.79 731.19
  L 308.90 733.54
  A 1.02 1.01 -57.0 0 1 307.65 733.81
  Q 302.06 730.99 294.96 731.89
  C 292.12 732.26 291.49 735.22 293.51 737.13
  Q 296.30 739.78 299.78 741.55
  Q 300.39 741.86 299.86 742.29
  Q 288.58 751.57 274.01 752.75
  Q 269.92 753.08 265.93 753.18
  Q 248.29 753.63 232.07 761.14
  Q 230.49 761.87 228.86 762.87
  C 226.19 764.51 223.50 765.91 220.46 766.79
  Q 217.01 767.79 213.44 768.83
  Q 212.89 768.99 212.97 769.55
  L 226.05 865.15
  Q 226.12 865.66 226.63 865.60
  L 238.43 864.24
  Q 238.95 864.18 239.13 864.67
  C 241.57 871.09 244.76 880.30 243.46 887.24
  Q 242.09 894.58 244.41 900.03
  C 246.78 905.62 246.86 913.61 245.92 919.20
  Q 244.96 924.90 245.98 930.70
  A 1.41 1.38 -29.8 0 1 245.65 931.87
  Q 244.89 932.73 244.42 933.74
  Q 243.98 934.68 245.01 934.52
  L 247.17 934.19
  Q 247.75 934.10 247.91 934.67
  Q 248.59 937.18 248.07 939.54
  Q 247.94 940.10 248.17 940.63
  Q 250.36 945.77 255.47 946.12
  Q 263.27 946.66 271.52 944.74
  Q 273.26 944.33 272.67 942.65
  C 271.21 938.50 266.79 937.60 264.43 934.36
  Q 262.95 932.32 260.89 930.88
  Q 260.46 930.57 260.28 930.08
  Q 259.75 928.60 259.49 927.05
  Q 257.78 916.77 256.86 905.26
  Q 256.82 904.69 257.09 904.20
  C 260.53 898.00 262.21 891.57 261.55 884.49
  Q 261.18 880.49 261.95 876.57
  Q 262.31 874.75 262.94 876.49
  Q 264.86 881.81 265.33 886.79
  C 265.67 890.41 268.30 892.60 269.56 895.82
  Q 274.08 907.41 273.52 919.65
  Q 273.41 922.22 274.82 924.67
  Q 275.10 925.16 275.06 925.73
  L 274.86 928.71
  A 1.03 1.03 0.0 0 0 276.55 929.57
  C 278.45 927.98 280.54 928.82 280.95 931.08
  C 281.53 934.19 282.13 937.29 286.23 937.03
  Q 291.72 936.69 296.91 936.38
  Q 299.06 936.25 301.00 935.35
  A 0.85 0.84 72.8 0 0 301.47 934.44
  Q 301.02 932.04 299.34 930.35
  Q 295.22 926.22 290.10 923.07
  Q 288.46 922.07 287.45 920.35
  Q 282.39 911.75 280.44 904.21
  Q 279.95 902.29 280.21 901.36
  Q 282.44 893.36 281.56 885.17
  Q 280.80 878.03 280.37 871.46
  Q 280.33 870.81 280.98 870.73
  C 291.83 869.51 298.27 862.11 300.99 852.03
  Q 308.64 823.60 318.20 802.61
  C 319.37 800.04 322.75 792.94 325.67 792.76
  Q 341.67 791.76 355.89 785.77
  Q 357.01 785.30 358.04 785.60
  C 360.92 786.43 363.91 786.53 366.76 785.68
  C 368.66 785.11 370.04 783.78 371.81 782.96
  C 377.83 780.17 378.87 775.38 377.22 769.18
  Q 376.08 764.87 371.87 764.75
  C 370.58 764.71 369.45 763.92 368.50 763.14
  Q 359.87 756.07 350.71 747.83
  A 1.13 1.10 -70.2 0 1 350.34 747.02
  C 350.12 739.07 341.89 733.61 334.89 731.09
  Q 334.33 730.89 334.06 730.36
  Q 332.95 728.14 333.30 725.39
  Q 333.35 724.96 333.70 724.69
  C 339.23 720.38 344.14 715.12 345.14 707.99
  Q 345.34 706.57 344.32 707.58
  Q 337.60 714.23 331.51 718.61
  Q 329.82 719.83 327.75 720.54
  Q 327.21 720.73 326.66 720.60
  Q 322.92 719.72 319.47 721.07
  Z
  M 1420.00 754.21
  L 1427.34 753.16
  Q 1428.87 752.94 1428.68 751.40
  L 1428.14 747.00
  Q 1427.91 745.15 1426.06 745.41
  L 1399.58 749.08
  Q 1397.74 749.33 1398.02 751.18
  L 1398.67 755.51
  Q 1398.91 757.06 1400.47 756.86
  L 1407.69 755.96
  Q 1408.26 755.89 1408.34 756.45
  L 1411.25 777.26
  A 1.11 1.11 0.0 0 0 1412.50 778.21
  L 1421.31 777.00
  A 1.38 1.37 82.3 0 0 1422.49 775.44
  L 1419.61 754.74
  Q 1419.55 754.28 1420.00 754.21
  Z
  M 1371.31 779.42
  L 1384.93 777.53
  Q 1385.45 777.46 1385.76 777.88
  L 1388.03 780.94
  A 1.30 1.28 -21.8 0 0 1389.24 781.45
  L 1398.47 780.15
  A 1.41 1.40 67.8 0 0 1399.40 777.92
  L 1380.53 752.74
  A 1.89 1.89 0.0 0 0 1378.77 751.99
  L 1372.23 752.85
  A 1.69 1.68 7.3 0 0 1370.90 753.87
  Q 1364.47 769.32 1358.64 783.63
  Q 1358.35 784.35 1358.44 784.55
  A 1.61 1.42 72.7 0 0 1360.00 785.50
  Q 1363.90 784.97 1368.30 784.33
  A 1.25 1.23 -83.5 0 0 1369.29 783.53
  L 1370.63 779.97
  Q 1370.81 779.49 1371.31 779.42
  Z
  M 1328.90 767.23
  L 1341.71 765.43
  Q 1342.92 765.26 1342.78 764.04
  L 1342.17 758.66
  A 1.57 1.56 82.9 0 0 1340.40 757.28
  L 1317.53 760.45
  A 1.34 1.34 0.0 0 0 1316.38 761.97
  L 1320.18 789.44
  A 1.56 1.55 -7.8 0 0 1321.93 790.76
  L 1345.44 787.51
  Q 1347.14 787.28 1346.91 785.58
  L 1346.26 780.70
  A 1.62 1.61 82.3 0 0 1344.45 779.32
  L 1330.93 781.16
  Q 1330.50 781.22 1330.41 780.80
  Q 1330.14 779.49 1330.33 778.45
  Q 1330.37 778.21 1330.61 778.18
  L 1341.31 776.67
  Q 1342.61 776.49 1342.43 775.19
  L 1341.65 769.67
  Q 1341.46 768.38 1340.17 768.55
  L 1329.36 770.03
  A 0.48 0.48 0.0 0 1 1328.82 769.60
  L 1328.61 767.60
  Q 1328.58 767.27 1328.90 767.23
  Z
  M 1273.54 782.47
  Q 1273.40 781.47 1274.00 782.28
  L 1283.77 795.33
  Q 1284.17 795.86 1284.84 795.80
  L 1288.70 795.44
  A 1.49 1.47 -82.1 0 0 1289.93 794.50
  L 1295.73 779.38
  Q 1296.20 778.16 1296.37 779.46
  L 1298.11 792.45
  Q 1298.32 793.97 1299.84 793.78
  L 1307.43 792.82
  Q 1308.99 792.63 1308.77 791.07
  L 1304.93 763.40
  A 1.17 1.16 82.3 0 0 1303.63 762.40
  L 1293.92 763.72
  Q 1293.31 763.80 1293.07 764.35
  L 1285.37 781.46
  Q 1285.11 782.03 1284.71 781.55
  L 1272.56 767.23
  Q 1272.16 766.76 1271.55 766.84
  L 1262.25 768.09
  A 1.48 1.48 0.0 0 0 1260.98 769.77
  L 1264.81 797.45
  A 1.24 1.23 81.9 0 0 1266.21 798.51
  L 1274.33 797.34
  A 1.27 1.27 0.0 0 0 1275.41 795.91
  L 1273.54 782.47
  Z
  M 1207.86 795.70
  L 1212.95 795.15
  Q 1213.65 795.08 1214.07 795.64
  L 1220.44 804.13
  A 1.35 1.35 0.0 0 0 1221.69 804.66
  L 1231.79 803.27
  A 1.33 1.32 66.4 0 0 1232.63 801.11
  L 1225.46 792.39
  A 1.50 1.34 -3.1 0 0 1225.05 792.06
  L 1222.81 790.93
  Q 1222.07 790.55 1222.82 790.20
  Q 1226.65 788.42 1227.12 784.90
  C 1228.15 777.16 1221.80 773.73 1215.10 774.65
  Q 1204.74 776.09 1194.56 777.51
  A 1.48 1.48 0.0 0 0 1193.29 779.19
  L 1197.07 806.54
  Q 1197.29 808.06 1198.81 807.85
  L 1207.51 806.64
  A 1.24 1.23 82.1 0 0 1208.56 805.24
  L 1207.33 796.38
  Q 1207.24 795.77 1207.86 795.70
  Z
  M 1168.97 800.57
  L 1179.63 799.11
  Q 1181.31 798.88 1181.07 797.21
  L 1180.42 792.46
  Q 1180.18 790.73 1178.45 790.97
  L 1167.90 792.43
  Q 1167.58 792.48 1167.54 792.15
  L 1167.29 789.93
  Q 1167.25 789.61 1167.57 789.57
  L 1180.06 787.87
  Q 1181.73 787.65 1181.50 785.98
  L 1180.84 781.03
  Q 1180.62 779.43 1179.03 779.66
  L 1156.19 782.83
  A 1.31 1.30 82.1 0 0 1155.08 784.31
  L 1158.90 811.94
  A 1.41 1.41 0.0 0 0 1160.50 813.15
  L 1184.33 809.86
  Q 1185.79 809.66 1185.61 808.19
  L 1184.96 802.99
  Q 1184.77 801.44 1183.23 801.65
  L 1169.47 803.57
  A 0.31 0.31 0.0 0 1 1169.12 803.30
  L 1168.80 800.79
  Q 1168.78 800.59 1168.97 800.57
  Z
  M 1123.67 798.03
  L 1122.33 788.71
  A 1.21 1.21 0.0 0 0 1120.96 787.68
  L 1112.23 788.93
  A 1.41 1.41 0.0 0 0 1111.03 790.52
  L 1114.85 818.07
  Q 1115.05 819.45 1116.42 819.26
  L 1124.60 818.14
  Q 1126.41 817.89 1126.16 816.08
  L 1124.89 806.81
  A 0.34 0.34 0.0 0 1 1125.19 806.43
  L 1134.37 805.16
  Q 1134.69 805.12 1134.74 805.44
  L 1136.03 814.77
  Q 1136.28 816.52 1138.03 816.28
  L 1146.37 815.10
  A 1.32 1.32 0.0 0 0 1147.50 813.61
  L 1143.66 786.02
  A 1.45 1.44 82.1 0 0 1142.03 784.78
  L 1133.78 785.93
  Q 1132.07 786.17 1132.31 787.88
  L 1133.56 796.71
  Q 1133.60 796.96 1133.35 796.99
  L 1124.01 798.29
  Q 1123.72 798.33 1123.67 798.03
  Z
  M 1083.23 801.41
  Q 1083.54 800.48 1084.50 800.26
  Q 1090.11 798.96 1097.02 801.24
  A 1.48 1.48 0.0 0 0 1098.91 799.46
  L 1097.25 793.02
  A 1.16 1.15 -2.7 0 0 1096.31 792.17
  C 1088.67 790.93 1071.99 791.54 1073.30 803.55
  Q 1073.97 809.79 1080.14 811.21
  Q 1084.86 812.30 1090.30 812.38
  Q 1091.24 812.40 1092.01 812.90
  A 0.98 0.98 0.0 0 1 1091.94 814.59
  C 1087.45 816.98 1081.36 815.22 1076.58 813.94
  A 0.96 0.94 16.5 0 0 1075.44 814.55
  C 1074.85 816.30 1076.33 820.78 1076.83 822.76
  A 1.10 1.09 85.7 0 0 1077.77 823.58
  Q 1084.16 824.30 1090.51 823.37
  C 1097.44 822.34 1103.99 818.06 1102.03 810.03
  C 1100.33 803.09 1092.36 802.75 1086.51 802.65
  Q 1084.98 802.62 1083.50 802.00
  Q 1083.09 801.83 1083.23 801.41
  Z
  M 1057.25 800.62
  C 1050.87 795.99 1039.91 797.54 1033.32 800.42
  Q 1024.08 804.47 1025.12 815.51
  C 1026.09 825.87 1032.44 830.17 1042.50 829.78
  C 1053.03 829.36 1063.81 825.47 1062.89 812.74
  C 1062.57 808.28 1060.97 803.33 1057.25 800.62
  Z
  M 995.28 824.95
  L 1007.76 833.82
  Q 1008.40 834.28 1009.18 834.16
  Q 1014.52 833.38 1019.78 832.67
  Q 1020.92 832.52 1020.71 831.27
  A 1.74 1.71 -77.3 0 0 1020.02 830.16
  L 1003.64 818.48
  A 0.42 0.41 -54.4 0 1 1003.55 817.90
  L 1012.43 805.39
  Q 1014.49 802.48 1010.96 802.96
  L 1003.01 804.05
  Q 1001.53 804.25 1000.70 805.48
  L 994.39 814.80
  Q 993.52 816.10 993.30 814.55
  L 992.23 807.05
  A 1.49 1.49 0.0 0 0 990.55 805.78
  L 982.48 806.90
  Q 980.83 807.13 981.06 808.78
  L 984.81 835.90
  Q 985.04 837.51 986.65 837.28
  L 994.77 836.14
  A 1.48 1.48 0.0 0 0 996.04 834.47
  L 994.78 825.25
  Q 994.67 824.52 995.28 824.95
  Z
  M 941.53 820.58
  L 949.14 819.44
  Q 950.43 819.24 950.22 817.96
  L 949.32 812.59
  Q 949.14 811.53 948.08 811.68
  L 920.77 815.48
  Q 919.23 815.69 919.43 817.24
  L 920.02 821.87
  Q 920.23 823.54 921.89 823.30
  L 929.04 822.27
  Q 929.65 822.18 929.74 822.79
  L 932.61 843.29
  Q 932.81 844.73 934.25 844.53
  L 942.64 843.37
  A 1.46 1.45 82.1 0 0 943.87 841.73
  L 941.04 821.24
  Q 940.96 820.67 941.53 820.58
  Z
  M 888.27 828.47
  L 891.06 848.76
  Q 891.30 850.48 893.02 850.25
  L 900.97 849.15
  Q 902.61 848.92 902.38 847.28
  L 899.57 826.96
  Q 899.49 826.40 900.05 826.32
  L 907.25 825.27
  Q 908.79 825.04 908.60 823.50
  L 908.06 818.94
  Q 907.86 817.27 906.19 817.50
  L 879.28 821.22
  Q 877.74 821.43 877.95 822.97
  L 878.59 827.62
  Q 878.81 829.19 880.38 828.99
  L 887.72 828.04
  Q 888.21 827.98 888.27 828.47
  Z
  M 851.21 851.53
  L 864.78 849.68
  Q 865.37 849.60 865.75 850.06
  Q 866.74 851.28 867.55 852.60
  Q 868.23 853.68 869.49 853.52
  Q 874.36 852.89 878.64 852.17
  Q 879.80 851.97 879.49 850.47
  A 1.40 1.25 23.4 0 0 879.25 849.95
  L 860.29 824.56
  A 1.31 1.29 67.5 0 0 859.08 824.05
  L 852.29 824.94
  A 1.94 1.92 7.1 0 0 850.76 826.12
  L 838.32 856.20
  A 0.88 0.87 -78.6 0 0 839.12 857.41
  Q 843.19 857.45 848.23 856.38
  Q 849.04 856.21 849.33 855.43
  L 850.57 852.05
  Q 850.73 851.60 851.21 851.53
  Z
  M 809.56 851.95
  L 806.89 832.49
  A 1.23 1.23 0.0 0 0 805.49 831.44
  L 796.69 832.69
  Q 795.49 832.86 795.65 834.07
  L 799.53 861.96
  A 1.24 1.24 0.0 0 0 800.94 863.02
  L 825.81 859.56
  Q 827.01 859.39 826.86 858.19
  L 826.07 851.70
  Q 825.89 850.25 824.45 850.45
  L 810.17 852.41
  Q 809.63 852.48 809.56 851.95
  Z
  M 777.00 858.10
  Q 776.96 858.24 776.82 858.29
  C 770.51 860.60 761.89 860.83 761.44 851.87
  C 761.16 846.19 767.68 843.55 772.34 843.33
  Q 776.94 843.11 781.77 843.69
  Q 783.81 843.93 783.28 841.95
  L 782.03 837.23
  A 1.85 1.85 0.0 0 0 780.40 835.87
  C 767.84 834.79 750.80 836.88 750.25 852.17
  C 749.92 861.30 755.31 867.26 764.63 867.69
  Q 776.13 868.23 787.04 863.43
  Q 788.00 863.00 787.86 861.97
  L 786.07 848.71
  A 1.43 1.43 0.0 0 0 784.45 847.48
  L 771.97 849.21
  Q 770.53 849.41 770.71 850.85
  Q 771.00 853.21 771.35 855.63
  Q 771.65 857.67 775.86 856.41
  A 0.92 0.92 0.0 0 1 777.01 857.03
  Q 777.16 857.54 777.00 858.10
  Z
  M 698.05 855.91
  L 689.73 848.34
  A 2.39 2.38 -28.0 0 0 687.79 847.75
  Q 682.72 848.48 678.10 849.13
  A 1.53 1.48 -4.0 0 0 676.78 850.60
  Q 676.77 850.89 677.47 851.52
  Q 685.16 858.44 692.87 865.38
  A 1.38 1.37 16.8 0 1 693.33 866.23
  L 694.74 876.33
  Q 694.93 877.73 696.34 877.54
  L 705.17 876.28
  Q 706.45 876.10 706.27 874.83
  L 704.82 864.54
  Q 704.75 864.05 705.01 863.64
  Q 710.71 854.76 715.94 846.56
  Q 716.44 845.79 716.20 844.85
  A 1.14 1.14 0.0 0 0 714.94 844.00
  L 705.37 845.34
  Q 704.82 845.41 704.55 845.89
  L 698.97 855.76
  Q 698.61 856.41 698.05 855.91
  Z
  M 659.21 859.65
  L 666.21 858.74
  Q 667.92 858.51 667.69 856.80
  L 667.09 852.31
  Q 666.88 850.69 665.25 850.91
  L 638.23 854.65
  Q 636.82 854.85 637.01 856.27
  L 637.67 861.15
  Q 637.88 862.67 639.40 862.46
  L 646.55 861.44
  Q 647.28 861.34 647.38 862.06
  L 650.21 882.62
  A 1.25 1.25 0.0 0 0 651.62 883.69
  L 660.63 882.48
  A 1.05 1.05 0.0 0 0 661.53 881.30
  L 658.64 860.41
  Q 658.54 859.74 659.21 859.65
  Z
  M 625.2857 857.6831
  A 1.22 1.22 0.0 0 0 623.9096 856.6423
  L 616.6591 857.6484
  A 1.22 1.22 0.0 0 0 615.6183 859.0245
  L 619.4943 886.9569
  A 1.22 1.22 0.0 0 0 620.8704 887.9977
  L 628.1209 886.9916
  A 1.22 1.22 0.0 0 0 629.1617 885.6155
  L 625.2857 857.6831
  Z
  M 590.67 882.19
  L 588.11 863.23
  A 1.60 1.59 82.1 0 0 586.31 861.86
  L 578.22 862.96
  A 1.61 1.60 -7.9 0 0 576.84 864.77
  L 580.69 892.43
  A 1.11 1.10 -7.8 0 0 581.94 893.37
  L 606.50 890.00
  Q 608.25 889.76 608.00 888.00
  L 607.20 882.27
  Q 606.97 880.57 605.27 880.81
  L 591.43 882.76
  Q 590.76 882.85 590.67 882.19
  Z
  M 555.25 892.58
  A 1.38 1.38 0.0 0 1 556.56 893.13
  L 558.55 895.89
  A 1.38 1.38 0.0 0 0 559.86 896.45
  L 569.08 895.16
  A 1.38 1.38 0.0 0 0 569.99 892.97
  L 550.96 867.45
  A 1.38 1.38 0.0 0 0 549.66 866.91
  L 542.63 867.89
  A 1.38 1.38 0.0 0 0 541.55 868.73
  L 529.16 898.62
  A 1.38 1.38 0.0 0 0 530.63 900.51
  L 538.87 899.36
  A 1.38 1.38 0.0 0 0 539.97 898.46
  L 541.12 895.30
  A 1.38 1.38 0.0 0 1 542.22 894.40
  L 555.25 892.58
  Z
  M 499.45 895.72
  C 497.77 895.53 496.59 894.18 496.35 892.56
  Q 495.11 884.25 494.07 876.20
  A 1.53 1.52 82.3 0 0 492.35 874.88
  L 484.61 875.90
  A 1.57 1.56 -7.7 0 0 483.26 877.66
  Q 484.56 887.54 485.94 897.24
  C 486.92 904.11 492.83 905.53 498.71 905.21
  C 505.45 904.84 519.61 903.23 518.32 893.16
  Q 517.13 883.86 515.53 872.95
  A 1.34 1.34 0.0 0 0 514.01 871.82
  L 506.09 872.93
  A 1.59 1.58 81.7 0 0 504.75 874.74
  Q 505.98 882.96 506.98 890.85
  C 507.54 895.27 502.79 896.11 499.45 895.72
  Z
  M 470.52 905.04
  Q 474.86 899.79 473.26 891.52
  Q 470.96 879.60 458.37 879.25
  Q 449.59 879.00 442.91 882.45
  C 435.47 886.29 434.41 894.69 436.86 902.03
  C 440.11 911.72 450.31 912.66 458.99 910.84
  Q 459.56 910.73 460.05 911.03
  Q 466.52 914.98 474.58 912.21
  Q 475.15 912.02 475.20 911.41
  L 475.53 906.37
  A 1.06 1.06 0.0 0 0 474.36 905.24
  L 470.83 905.61
  Q 469.98 905.69 470.52 905.04
  Z"
/>
<path fill="#fafafb" d="
  M 1214.38 228.21
  L 1151.21 236.95
  A 0.34 0.34 0.0 0 1 1150.82 236.66
  L 1142.58 177.23
  A 0.34 0.34 0.0 0 1 1142.87 176.84
  L 1346.25 148.64
  A 0.34 0.34 0.0 0 1 1346.64 148.93
  L 1354.89 208.38
  A 0.34 0.34 0.0 0 1 1354.60 208.77
  L 1291.42 217.51
  A 0.34 0.34 0.0 0 0 1291.13 217.90
  L 1319.84 425.03
  A 0.34 0.34 0.0 0 1 1319.55 425.42
  L 1243.88 435.90
  A 0.34 0.34 0.0 0 1 1243.49 435.61
  L 1214.77 228.50
  A 0.34 0.34 0.0 0 0 1214.38 228.21
  Z"
/>
<path fill="#fafafb" d="
  M 1015.57 422.18
  Q 1013.36 444.75 1012.92 467.49
  Q 1012.92 467.96 1012.46 468.02
  L 936.99 478.48
  Q 936.49 478.55 936.52 478.06
  Q 939.19 422.44 948.26 366.64
  C 954.93 325.60 963.41 283.13 975.38 244.65
  Q 982.92 220.38 992.96 198.11
  Q 993.18 197.62 993.71 197.55
  L 1065.46 187.60
  Q 1065.96 187.53 1066.29 187.92
  C 1095.11 222.94 1119.20 260.36 1139.78 300.70
  Q 1173.13 366.07 1196.66 441.88
  A 0.52 0.51 -13.0 0 1 1196.24 442.54
  L 1121.08 452.95
  A 0.58 0.58 0.0 0 1 1120.46 452.56
  L 1106.19 409.56
  A 0.61 0.61 0.0 0 0 1105.53 409.15
  L 1016.19 421.53
  Q 1015.63 421.61 1015.57 422.18
  Z
  M 1082.70 354.35
  C 1072.28 328.59 1058.50 303.84 1042.63 280.86
  A 0.36 0.36 0.0 0 0 1041.99 280.96
  Q 1029.95 320.63 1023.17 362.73
  A 0.47 0.47 0.0 0 0 1023.69 363.27
  L 1082.24 355.16
  Q 1082.98 355.05 1082.70 354.35
  Z"
/>
<path fill="#fafafb" d="
  M 781.98 288.48
  L 786.91 324.04
  A 0.32 0.32 0.0 0 0 787.27 324.32
  L 879.35 311.55
  A 0.32 0.32 0.0 0 1 879.71 311.83
  L 887.97 371.31
  A 0.32 0.32 0.0 0 1 887.69 371.67
  L 795.61 384.44
  A 0.32 0.32 0.0 0 0 795.33 384.80
  L 802.38 435.52
  A 0.32 0.32 0.0 0 0 802.74 435.80
  L 907.07 421.32
  A 0.32 0.32 0.0 0 1 907.43 421.60
  L 915.69 481.08
  A 0.32 0.32 0.0 0 1 915.41 481.44
  L 734.72 506.51
  A 0.32 0.32 0.0 0 1 734.36 506.23
  L 697.29 238.95
  A 0.32 0.32 0.0 0 1 697.57 238.59
  L 871.41 214.48
  A 0.32 0.32 0.0 0 1 871.77 214.76
  L 880.02 274.24
  A 0.32 0.32 0.0 0 1 879.74 274.60
  L 782.26 288.12
  A 0.32 0.32 0.0 0 0 781.98 288.48
  Z"
/>
<path fill="#fafafb" d="
  M 448.66 386.93
  L 470.27 542.80
  A 0.37 0.37 0.0 0 1 469.95 543.22
  L 394.31 553.71
  Q 393.97 553.76 393.92 553.42
  L 356.88 286.29
  Q 356.81 285.83 357.27 285.77
  Q 395.52 280.48 432.02 275.43
  Q 433.37 275.24 434.49 276.05
  C 459.41 294.08 480.43 316.97 499.91 343.08
  Q 513.54 361.35 522.76 379.97
  Q 524.06 382.61 524.53 379.71
  Q 527.25 362.63 533.03 346.43
  C 541.15 323.64 551.66 301.21 563.60 280.89
  Q 571.71 267.08 581.54 255.08
  Q 581.91 254.63 582.49 254.55
  L 657.99 244.09
  A 0.30 0.29 -7.7 0 1 658.33 244.34
  L 695.36 511.42
  Q 695.44 511.95 694.91 512.03
  L 619.56 522.48
  Q 619.08 522.55 619.01 522.06
  L 597.44 366.50
  Q 597.30 365.44 596.69 366.31
  C 581.63 387.78 572.22 413.61 567.45 439.70
  Q 563.34 462.24 562.70 484.66
  Q 562.69 485.14 562.22 485.20
  L 514.96 491.75
  A 0.68 0.68 0.0 0 1 514.22 491.28
  C 501.95 452.48 482.07 412.12 449.23 386.60
  Q 448.54 386.06 448.66 386.93
  Z"
/>
<path fill="#bf1e2d" d="
  M 1042.63 280.86
  C 1058.50 303.84 1072.28 328.59 1082.70 354.35
  Q 1082.98 355.05 1082.24 355.16
  L 1023.69 363.27
  A 0.47 0.47 0.0 0 1 1023.17 362.73
  Q 1029.95 320.63 1041.99 280.96
  A 0.36 0.36 0.0 0 1 1042.63 280.86
  Z"
/>
<path fill="#fafafb" d="
  M 265.83 350.63
  L 258.33 296.65
  A 0.30 0.30 0.0 0 1 258.59 296.31
  L 289.36 292.07
  A 0.30 0.30 0.0 0 1 289.70 292.33
  L 302.70 386.09
  A 0.30 0.30 0.0 0 1 302.44 386.43
  L 163.65 405.68
  A 0.30 0.30 0.0 0 1 163.31 405.42
  L 150.81 315.22
  A 0.30 0.30 0.0 0 1 151.07 314.88
  L 181.83 310.59
  A 0.30 0.30 0.0 0 1 182.17 310.85
  L 189.16 361.27
  A 0.30 0.30 0.0 0 0 189.50 361.53
  L 207.61 359.02
  A 0.30 0.30 0.0 0 0 207.87 358.68
  L 201.27 311.08
  A 0.30 0.30 0.0 0 1 201.53 310.74
  L 232.29 306.47
  A 0.30 0.30 0.0 0 1 232.63 306.73
  L 239.24 354.33
  A 0.30 0.30 0.0 0 0 239.58 354.59
  L 265.57 350.97
  A 0.30 0.30 0.0 0 0 265.83 350.63
  Z"
/>
<path fill="#fafafb" d="
  M 243.49 463.52
  L 249.67 508.09
  A 0.39 0.39 0.0 0 0 250.11 508.43
  L 317.97 499.02
  A 0.39 0.39 0.0 0 1 318.41 499.36
  L 323.83 538.38
  A 0.39 0.39 0.0 0 1 323.49 538.82
  L 184.88 558.05
  A 0.39 0.39 0.0 0 1 184.44 557.71
  L 179.03 518.66
  A 0.39 0.39 0.0 0 1 179.37 518.22
  L 217.97 512.89
  A 0.39 0.39 0.0 0 0 218.31 512.45
  L 212.13 467.88
  A 0.39 0.39 0.0 0 0 211.69 467.54
  L 173.09 472.90
  A 0.39 0.39 0.0 0 1 172.65 472.56
  L 167.21 433.54
  A 0.39 0.39 0.0 0 1 167.55 433.10
  L 306.17 413.87
  A 0.39 0.39 0.0 0 1 306.61 414.21
  L 312.02 453.24
  A 0.39 0.39 0.0 0 1 311.68 453.68
  L 243.83 463.08
  A 0.39 0.39 0.0 0 0 243.49 463.52
  Z"
/>
<path fill="#fafafb" d="
  M 1340.96 534.22
  L 1332.82 475.51
  Q 1332.75 475.04 1333.23 474.97
  L 1388.92 467.25
  Q 1389.68 467.15 1389.78 467.91
  L 1419.03 678.81
  A 0.69 0.69 0.0 0 1 1418.44 679.58
  L 1362.73 687.32
  A 0.55 0.55 0.0 0 1 1362.11 686.86
  Q 1357.61 654.31 1352.89 620.21
  Q 1352.54 617.68 1350.44 615.88
  Q 1349.71 615.24 1349.02 614.61
  Q 1311.09 579.59 1265.06 556.39
  A 0.31 0.31 0.0 0 0 1264.61 556.71
  L 1284.16 697.74
  Q 1284.23 698.20 1283.77 698.26
  L 1228.19 705.96
  Q 1227.29 706.09 1227.17 705.19
  L 1197.92 494.26
  Q 1197.85 493.74 1198.36 493.67
  Q 1225.49 489.91 1253.01 486.11
  Q 1254.84 485.85 1256.74 486.47
  Q 1268.78 490.38 1281.85 496.83
  Q 1304.57 508.04 1325.47 522.77
  Q 1333.33 528.30 1340.50 534.47
  A 0.28 0.28 0.0 0 0 1340.96 534.22
  Z"
/>
<path fill="#fafafb" d="
  M 1109.81 632.68
  L 1115.34 672.67
  A 0.33 0.33 0.0 0 0 1115.72 672.95
  L 1193.26 662.21
  A 0.33 0.33 0.0 0 1 1193.64 662.49
  L 1200.15 709.51
  A 0.33 0.33 0.0 0 1 1199.87 709.89
  L 1065.40 728.53
  A 0.33 0.33 0.0 0 1 1065.02 728.25
  L 1035.68 516.56
  A 0.33 0.33 0.0 0 1 1035.96 516.18
  L 1165.31 498.25
  A 0.33 0.33 0.0 0 1 1165.69 498.53
  L 1172.22 545.57
  A 0.33 0.33 0.0 0 1 1171.94 545.95
  L 1099.50 555.97
  A 0.33 0.33 0.0 0 0 1099.22 556.35
  L 1103.09 584.33
  A 0.33 0.33 0.0 0 0 1103.47 584.61
  L 1171.87 575.13
  A 0.33 0.33 0.0 0 1 1172.25 575.41
  L 1178.77 622.45
  A 0.33 0.33 0.0 0 1 1178.49 622.83
  L 1110.09 632.30
  A 0.33 0.33 0.0 0 0 1109.81 632.68
  Z"
/>
<path fill="#fafafb" d="
  M 934.37 658.60
  C 946.52 616.62 951.76 572.35 952.00 528.35
  Q 952.00 527.82 952.52 527.75
  L 1010.97 519.63
  Q 1011.46 519.56 1011.44 520.07
  Q 1009.60 560.17 1003.01 600.38
  C 995.06 648.93 983.77 695.87 967.07 741.83
  A 0.62 0.62 0.0 0 1 966.57 742.23
  L 925.54 747.90
  A 0.35 0.34 -21.4 0 1 925.21 747.76
  C 882.15 685.84 844.21 618.59 822.03 546.23
  A 0.33 0.33 0.0 0 1 822.30 545.81
  L 880.77 537.69
  Q 881.30 537.61 881.47 538.13
  Q 885.95 551.63 892.57 570.23
  Q 909.09 616.63 934.02 658.64
  A 0.19 0.19 0.0 0 0 934.37 658.60
  Z"
/>
<path fill="#fafafb" d="
  M 733.06 738.81
  Q 731.60 756.07 731.40 774.20
  A 0.79 0.78 86.6 0 1 730.72 774.97
  L 674.94 782.69
  Q 674.43 782.76 674.45 782.24
  Q 675.00 765.94 676.31 749.53
  Q 681.37 686.23 695.25 623.67
  Q 701.30 596.43 710.93 570.52
  Q 712.67 565.85 714.62 561.30
  Q 714.86 560.73 715.48 560.64
  L 768.75 553.26
  A 0.68 0.67 -22.5 0 1 769.39 553.52
  C 815.59 612.62 846.67 683.47 868.29 755.41
  Q 868.43 755.87 867.95 755.94
  L 812.07 763.67
  Q 811.55 763.74 811.39 763.24
  L 800.53 729.26
  A 0.47 0.47 0.0 0 0 800.01 728.94
  L 733.73 738.11
  Q 733.11 738.19 733.06 738.81
  Z
  M 782.65 685.38
  C 774.64 665.10 764.52 645.78 752.51 627.28
  A 0.43 0.43 0.0 0 0 751.74 627.40
  Q 743.19 658.23 738.36 691.58
  A 0.39 0.39 0.0 0 0 738.80 692.02
  L 782.29 685.99
  A 0.45 0.45 0.0 0 0 782.65 685.38
  Z"
/>
<path fill="#fafafb" d="
  M 469.86 684.77
  Q 469.45 684.45 469.52 684.97
  L 486.59 808.04
  Q 486.69 808.80 485.94 808.90
  L 430.48 816.58
  Q 429.76 816.68 429.66 815.96
  L 400.38 604.83
  Q 400.31 604.30 400.83 604.23
  Q 428.66 600.45 455.49 596.68
  C 456.51 596.53 457.24 596.37 458.15 597.06
  Q 471.55 607.25 483.83 620.91
  Q 502.69 641.88 516.32 664.15
  Q 521.10 671.97 524.93 680.43
  Q 525.11 680.81 525.53 680.85
  A 0.31 0.31 0.0 0 0 525.88 680.58
  Q 528.11 664.21 533.86 648.22
  C 540.41 630.01 548.30 612.08 558.05 595.65
  Q 562.25 588.57 567.67 581.50
  Q 567.98 581.09 568.49 581.02
  L 624.43 573.26
  Q 624.92 573.19 624.99 573.68
  L 654.29 784.98
  A 0.56 0.56 0.0 0 1 653.82 785.61
  L 597.94 793.36
  Q 597.43 793.43 597.36 792.92
  L 580.31 669.87
  Q 580.19 668.97 579.69 669.73
  C 562.11 696.42 555.82 731.01 555.21 762.97
  Q 555.20 763.45 554.72 763.52
  L 519.74 768.38
  Q 519.18 768.46 519.01 767.92
  C 510.68 740.56 498.13 713.36 478.62 692.80
  Q 474.43 688.38 469.86 684.77
  Z"
/>
<path fill="#fafafb" d="
  M 224.16 611.52
  L 331.58 596.61
  A 0.31 0.31 0.0 0 1 331.93 596.88
  L 337.37 636.07
  A 0.31 0.31 0.0 0 1 337.10 636.42
  L 229.68 651.32
  A 0.31 0.31 0.0 0 0 229.41 651.67
  L 233.96 684.25
  A 0.31 0.31 0.0 0 1 233.69 684.60
  L 202.94 688.86
  A 0.31 0.31 0.0 0 1 202.59 688.59
  L 187.94 583.02
  A 0.31 0.31 0.0 0 1 188.21 582.67
  L 218.96 578.39
  A 0.31 0.31 0.0 0 1 219.31 578.66
  L 223.81 611.25
  A 0.31 0.31 0.0 0 0 224.16 611.52
  Z"
/>
<path fill="#bf1e2d" d="
  M 752.51 627.28
  C 764.52 645.78 774.64 665.10 782.65 685.38
  A 0.45 0.45 0.0 0 1 782.29 685.99
  L 738.80 692.02
  A 0.39 0.39 0.0 0 1 738.36 691.58
  Q 743.19 658.23 751.74 627.40
  A 0.43 0.43 0.0 0 1 752.51 627.28
  Z"
/>
<path fill="#fafafb" d="
  M 319.47 721.07
  Q 322.92 719.72 326.66 720.60
  Q 327.21 720.73 327.75 720.54
  Q 329.82 719.83 331.51 718.61
  Q 337.60 714.23 344.32 707.58
  Q 345.34 706.57 345.14 707.99
  C 344.14 715.12 339.23 720.38 333.70 724.69
  Q 333.35 724.96 333.30 725.39
  Q 332.95 728.14 334.06 730.36
  Q 334.33 730.89 334.89 731.09
  C 341.89 733.61 350.12 739.07 350.34 747.02
  A 1.13 1.10 -70.2 0 0 350.71 747.83
  Q 359.87 756.07 368.50 763.14
  C 369.45 763.92 370.58 764.71 371.87 764.75
  Q 376.08 764.87 377.22 769.18
  C 378.87 775.38 377.83 780.17 371.81 782.96
  C 370.04 783.78 368.66 785.11 366.76 785.68
  C 363.91 786.53 360.92 786.43 358.04 785.60
  Q 357.01 785.30 355.89 785.77
  Q 341.67 791.76 325.67 792.76
  C 322.75 792.94 319.37 800.04 318.20 802.61
  Q 308.64 823.60 300.99 852.03
  C 298.27 862.11 291.83 869.51 280.98 870.73
  Q 280.33 870.81 280.37 871.46
  Q 280.80 878.03 281.56 885.17
  Q 282.44 893.36 280.21 901.36
  Q 279.95 902.29 280.44 904.21
  Q 282.39 911.75 287.45 920.35
  Q 288.46 922.07 290.10 923.07
  Q 295.22 926.22 299.34 930.35
  Q 301.02 932.04 301.47 934.44
  A 0.85 0.84 72.8 0 1 301.00 935.35
  Q 299.06 936.25 296.91 936.38
  Q 291.72 936.69 286.23 937.03
  C 282.13 937.29 281.53 934.19 280.95 931.08
  C 280.54 928.82 278.45 927.98 276.55 929.57
  A 1.03 1.03 0.0 0 1 274.86 928.71
  L 275.06 925.73
  Q 275.10 925.16 274.82 924.67
  Q 273.41 922.22 273.52 919.65
  Q 274.08 907.41 269.56 895.82
  C 268.30 892.60 265.67 890.41 265.33 886.79
  Q 264.86 881.81 262.94 876.49
  Q 262.31 874.75 261.95 876.57
  Q 261.18 880.49 261.55 884.49
  C 262.21 891.57 260.53 898.00 257.09 904.20
  Q 256.82 904.69 256.86 905.26
  Q 257.78 916.77 259.49 927.05
  Q 259.75 928.60 260.28 930.08
  Q 260.46 930.57 260.89 930.88
  Q 262.95 932.32 264.43 934.36
  C 266.79 937.60 271.21 938.50 272.67 942.65
  Q 273.26 944.33 271.52 944.74
  Q 263.27 946.66 255.47 946.12
  Q 250.36 945.77 248.17 940.63
  Q 247.94 940.10 248.07 939.54
  Q 248.59 937.18 247.91 934.67
  Q 247.75 934.10 247.17 934.19
  L 245.01 934.52
  Q 243.98 934.68 244.42 933.74
  Q 244.89 932.73 245.65 931.87
  A 1.41 1.38 -29.8 0 0 245.98 930.70
  Q 244.96 924.90 245.92 919.20
  C 246.86 913.61 246.78 905.62 244.41 900.03
  Q 242.09 894.58 243.46 887.24
  C 244.76 880.30 241.57 871.09 239.13 864.67
  Q 238.95 864.18 238.43 864.24
  L 226.63 865.60
  Q 226.12 865.66 226.05 865.15
  L 212.97 769.55
  Q 212.89 768.99 213.44 768.83
  Q 217.01 767.79 220.46 766.79
  C 223.50 765.91 226.19 764.51 228.86 762.87
  Q 230.49 761.87 232.07 761.14
  Q 248.29 753.63 265.93 753.18
  Q 269.92 753.08 274.01 752.75
  Q 288.58 751.57 299.86 742.29
  Q 300.39 741.86 299.78 741.55
  Q 296.30 739.78 293.51 737.13
  C 291.49 735.22 292.12 732.26 294.96 731.89
  Q 302.06 730.99 307.65 733.81
  A 1.02 1.01 -57.0 0 0 308.90 733.54
  L 310.79 731.19
  Q 311.17 730.72 310.98 730.14
  C 308.08 721.28 318.60 711.78 325.68 707.67
  Q 326.80 707.02 326.16 708.14
  L 319.00 720.53
  Q 318.46 721.47 319.47 721.07
  Z"
/>
<path fill="#fafafb" d="
  M 1419.61 754.74
  L 1422.49 775.44
  A 1.38 1.37 82.3 0 1 1421.31 777.00
  L 1412.50 778.21
  A 1.11 1.11 0.0 0 1 1411.25 777.26
  L 1408.34 756.45
  Q 1408.26 755.89 1407.69 755.96
  L 1400.47 756.86
  Q 1398.91 757.06 1398.67 755.51
  L 1398.02 751.18
  Q 1397.74 749.33 1399.58 749.08
  L 1426.06 745.41
  Q 1427.91 745.15 1428.14 747.00
  L 1428.68 751.40
  Q 1428.87 752.94 1427.34 753.16
  L 1420.00 754.21
  Q 1419.55 754.28 1419.61 754.74
  Z"
/>
<path fill="#fafafb" d="
  M 1370.63 779.97
  L 1369.29 783.53
  A 1.25 1.23 -83.5 0 1 1368.30 784.33
  Q 1363.90 784.97 1360.00 785.50
  A 1.61 1.42 72.7 0 1 1358.44 784.55
  Q 1358.35 784.35 1358.64 783.63
  Q 1364.47 769.32 1370.90 753.87
  A 1.69 1.68 7.3 0 1 1372.23 752.85
  L 1378.77 751.99
  A 1.89 1.89 0.0 0 1 1380.53 752.74
  L 1399.40 777.92
  A 1.41 1.40 67.8 0 1 1398.47 780.15
  L 1389.24 781.45
  A 1.30 1.28 -21.8 0 1 1388.03 780.94
  L 1385.76 777.88
  Q 1385.45 777.46 1384.93 777.53
  L 1371.31 779.42
  Q 1370.81 779.49 1370.63 779.97
  Z
  M 1374.11 771.30
  A 0.40 0.40 0.0 0 0 1374.53 771.84
  L 1380.16 771.10
  A 0.40 0.40 0.0 0 0 1380.43 770.46
  L 1376.95 765.78
  A 0.40 0.40 0.0 0 0 1376.26 765.87
  L 1374.11 771.30
  Z"
/>
<path fill="#fafafb" d="
  M 1328.90 767.23
  Q 1328.58 767.27 1328.61 767.60
  L 1328.82 769.60
  A 0.48 0.48 0.0 0 0 1329.36 770.03
  L 1340.17 768.55
  Q 1341.46 768.38 1341.65 769.67
  L 1342.43 775.19
  Q 1342.61 776.49 1341.31 776.67
  L 1330.61 778.18
  Q 1330.37 778.21 1330.33 778.45
  Q 1330.14 779.49 1330.41 780.80
  Q 1330.50 781.22 1330.93 781.16
  L 1344.45 779.32
  A 1.62 1.61 82.3 0 1 1346.26 780.70
  L 1346.91 785.58
  Q 1347.14 787.28 1345.44 787.51
  L 1321.93 790.76
  A 1.56 1.55 -7.8 0 1 1320.18 789.44
  L 1316.38 761.97
  A 1.34 1.34 0.0 0 1 1317.53 760.45
  L 1340.40 757.28
  A 1.57 1.56 82.9 0 1 1342.17 758.66
  L 1342.78 764.04
  Q 1342.92 765.26 1341.71 765.43
  L 1328.90 767.23
  Z"
/>
<path fill="#fafafb" d="
  M 1273.54 782.47
  L 1275.41 795.91
  A 1.27 1.27 0.0 0 1 1274.33 797.34
  L 1266.21 798.51
  A 1.24 1.23 81.9 0 1 1264.81 797.45
  L 1260.98 769.77
  A 1.48 1.48 0.0 0 1 1262.25 768.09
  L 1271.55 766.84
  Q 1272.16 766.76 1272.56 767.23
  L 1284.71 781.55
  Q 1285.11 782.03 1285.37 781.46
  L 1293.07 764.35
  Q 1293.31 763.80 1293.92 763.72
  L 1303.63 762.40
  A 1.17 1.16 82.3 0 1 1304.93 763.40
  L 1308.77 791.07
  Q 1308.99 792.63 1307.43 792.82
  L 1299.84 793.78
  Q 1298.32 793.97 1298.11 792.45
  L 1296.37 779.46
  Q 1296.20 778.16 1295.73 779.38
  L 1289.93 794.50
  A 1.49 1.47 -82.1 0 1 1288.70 795.44
  L 1284.84 795.80
  Q 1284.17 795.86 1283.77 795.33
  L 1274.00 782.28
  Q 1273.40 781.47 1273.54 782.47
  Z"
/>
<path fill="#bf1e2d" d="
  M 1374.11 771.30
  L 1376.26 765.87
  A 0.40 0.40 0.0 0 1 1376.95 765.78
  L 1380.43 770.46
  A 0.40 0.40 0.0 0 1 1380.16 771.10
  L 1374.53 771.84
  A 0.40 0.40 0.0 0 1 1374.11 771.30
  Z"
/>
<path fill="#fafafb" d="
  M 1207.33 796.38
  L 1208.56 805.24
  A 1.24 1.23 82.1 0 1 1207.51 806.64
  L 1198.81 807.85
  Q 1197.29 808.06 1197.07 806.54
  L 1193.29 779.19
  A 1.48 1.48 0.0 0 1 1194.56 777.51
  Q 1204.74 776.09 1215.10 774.65
  C 1221.80 773.73 1228.15 777.16 1227.12 784.90
  Q 1226.65 788.42 1222.82 790.20
  Q 1222.07 790.55 1222.81 790.93
  L 1225.05 792.06
  A 1.50 1.34 -3.1 0 1 1225.46 792.39
  L 1232.63 801.11
  A 1.33 1.32 66.4 0 1 1231.79 803.27
  L 1221.69 804.66
  A 1.35 1.35 0.0 0 1 1220.44 804.13
  L 1214.07 795.64
  Q 1213.65 795.08 1212.95 795.15
  L 1207.86 795.70
  Q 1207.24 795.77 1207.33 796.38
  Z
  M 1205.30 783.74
  L 1205.97 788.31
  A 0.48 0.48 0.0 0 0 1206.51 788.71
  L 1212.40 787.85
  A 3.99 2.70 -8.3 0 0 1215.96 784.61
  L 1215.93 784.43
  A 3.99 2.70 -8.3 0 0 1211.59 782.33
  L 1205.71 783.19
  A 0.48 0.48 0.0 0 0 1205.30 783.74
  Z"
/>
<path fill="#fafafb" d="
  M 1168.97 800.57
  Q 1168.78 800.59 1168.80 800.79
  L 1169.12 803.30
  A 0.31 0.31 0.0 0 0 1169.47 803.57
  L 1183.23 801.65
  Q 1184.77 801.44 1184.96 802.99
  L 1185.61 808.19
  Q 1185.79 809.66 1184.33 809.86
  L 1160.50 813.15
  A 1.41 1.41 0.0 0 1 1158.90 811.94
  L 1155.08 784.31
  A 1.31 1.30 82.1 0 1 1156.19 782.83
  L 1179.03 779.66
  Q 1180.62 779.43 1180.84 781.03
  L 1181.50 785.98
  Q 1181.73 787.65 1180.06 787.87
  L 1167.57 789.57
  Q 1167.25 789.61 1167.29 789.93
  L 1167.54 792.15
  Q 1167.58 792.48 1167.90 792.43
  L 1178.45 790.97
  Q 1180.18 790.73 1180.42 792.46
  L 1181.07 797.21
  Q 1181.31 798.88 1179.63 799.11
  L 1168.97 800.57
  Z"
/>
<path fill="#bf1e2d" d="
  M 1205.30 783.74
  A 0.48 0.48 0.0 0 1 1205.71 783.19
  L 1211.59 782.33
  A 3.99 2.70 -8.3 0 1 1215.93 784.43
  L 1215.96 784.61
  A 3.99 2.70 -8.3 0 1 1212.40 787.85
  L 1206.51 788.71
  A 0.48 0.48 0.0 0 1 1205.97 788.31
  L 1205.30 783.74
  Z"
/>
<path fill="#fafafb" d="
  M 1123.67 798.03
  Q 1123.72 798.33 1124.01 798.29
  L 1133.35 796.99
  Q 1133.60 796.96 1133.56 796.71
  L 1132.31 787.88
  Q 1132.07 786.17 1133.78 785.93
  L 1142.03 784.78
  A 1.45 1.44 82.1 0 1 1143.66 786.02
  L 1147.50 813.61
  A 1.32 1.32 0.0 0 1 1146.37 815.10
  L 1138.03 816.28
  Q 1136.28 816.52 1136.03 814.77
  L 1134.74 805.44
  Q 1134.69 805.12 1134.37 805.16
  L 1125.19 806.43
  A 0.34 0.34 0.0 0 0 1124.89 806.81
  L 1126.16 816.08
  Q 1126.41 817.89 1124.60 818.14
  L 1116.42 819.26
  Q 1115.05 819.45 1114.85 818.07
  L 1111.03 790.52
  A 1.41 1.41 0.0 0 1 1112.23 788.93
  L 1120.96 787.68
  A 1.21 1.21 0.0 0 1 1122.33 788.71
  L 1123.67 798.03
  Z"
/>
<path fill="#fafafb" d="
  M 1083.50 802.00
  Q 1084.98 802.62 1086.51 802.65
  C 1092.36 802.75 1100.33 803.09 1102.03 810.03
  C 1103.99 818.06 1097.44 822.34 1090.51 823.37
  Q 1084.16 824.30 1077.77 823.58
  A 1.10 1.09 85.7 0 1 1076.83 822.76
  C 1076.33 820.78 1074.85 816.30 1075.44 814.55
  A 0.96 0.94 16.5 0 1 1076.58 813.94
  C 1081.36 815.22 1087.45 816.98 1091.94 814.59
  A 0.98 0.98 0.0 0 0 1092.01 812.90
  Q 1091.24 812.40 1090.30 812.38
  Q 1084.86 812.30 1080.14 811.21
  Q 1073.97 809.79 1073.30 803.55
  C 1071.99 791.54 1088.67 790.93 1096.31 792.17
  A 1.16 1.15 -2.7 0 1 1097.25 793.02
  L 1098.91 799.46
  A 1.48 1.48 0.0 0 1 1097.02 801.24
  Q 1090.11 798.96 1084.50 800.26
  Q 1083.54 800.48 1083.23 801.41
  Q 1083.09 801.83 1083.50 802.00
  Z"
/>
<path fill="#fafafb" d="
  M 1057.25 800.62
  C 1060.97 803.33 1062.57 808.28 1062.89 812.74
  C 1063.81 825.47 1053.03 829.36 1042.50 829.78
  C 1032.44 830.17 1026.09 825.87 1025.12 815.51
  Q 1024.08 804.47 1033.32 800.42
  C 1039.91 797.54 1050.87 795.99 1057.25 800.62
  Z
  M 1051.3802 812.1943
  A 5.99 5.99 0.0 0 0 1044.5794 807.1436
  L 1041.5127 807.5965
  A 5.99 5.99 0.0 0 0 1036.4620 814.3973
  L 1036.6198 815.4657
  A 5.99 5.99 0.0 0 0 1043.4206 820.5164
  L 1046.4873 820.0635
  A 5.99 5.99 0.0 0 0 1051.5380 813.2627
  L 1051.3802 812.1943
  Z"
/>
<path fill="#fafafb" d="
  M 994.78 825.25
  L 996.04 834.47
  A 1.48 1.48 0.0 0 1 994.77 836.14
  L 986.65 837.28
  Q 985.04 837.51 984.81 835.90
  L 981.06 808.78
  Q 980.83 807.13 982.48 806.90
  L 990.55 805.78
  A 1.49 1.49 0.0 0 1 992.23 807.05
  L 993.30 814.55
  Q 993.52 816.10 994.39 814.80
  L 1000.70 805.48
  Q 1001.53 804.25 1003.01 804.05
  L 1010.96 802.96
  Q 1014.49 802.48 1012.43 805.39
  L 1003.55 817.90
  A 0.42 0.41 -54.4 0 0 1003.64 818.48
  L 1020.02 830.16
  A 1.74 1.71 -77.3 0 1 1020.71 831.27
  Q 1020.92 832.52 1019.78 832.67
  Q 1014.52 833.38 1009.18 834.16
  Q 1008.40 834.28 1007.76 833.82
  L 995.28 824.95
  Q 994.67 824.52 994.78 825.25
  Z"
/>
<rect fill="#bf1e2d" x="-7.54" y="-6.53" transform="translate(1044.00,813.83) rotate(-8.4)" width="15.08" height="13.06" rx="5.99"/>
<path fill="#fafafb" d="
  M 941.04 821.24
  L 943.87 841.73
  A 1.46 1.45 82.1 0 1 942.64 843.37
  L 934.25 844.53
  Q 932.81 844.73 932.61 843.29
  L 929.74 822.79
  Q 929.65 822.18 929.04 822.27
  L 921.89 823.30
  Q 920.23 823.54 920.02 821.87
  L 919.43 817.24
  Q 919.23 815.69 920.77 815.48
  L 948.08 811.68
  Q 949.14 811.53 949.32 812.59
  L 950.22 817.96
  Q 950.43 819.24 949.14 819.44
  L 941.53 820.58
  Q 940.96 820.67 941.04 821.24
  Z"
/>
<path fill="#fafafb" d="
  M 887.72 828.04
  L 880.38 828.99
  Q 878.81 829.19 878.59 827.62
  L 877.95 822.97
  Q 877.74 821.43 879.28 821.22
  L 906.19 817.50
  Q 907.86 817.27 908.06 818.94
  L 908.60 823.50
  Q 908.79 825.04 907.25 825.27
  L 900.05 826.32
  Q 899.49 826.40 899.57 826.96
  L 902.38 847.28
  Q 902.61 848.92 900.97 849.15
  L 893.02 850.25
  Q 891.30 850.48 891.06 848.76
  L 888.27 828.47
  Q 888.21 827.98 887.72 828.04
  Z"
/>
<path fill="#fafafb" d="
  M 850.57 852.05
  L 849.33 855.43
  Q 849.04 856.21 848.23 856.38
  Q 843.19 857.45 839.12 857.41
  A 0.88 0.87 -78.6 0 1 838.32 856.20
  L 850.76 826.12
  A 1.94 1.92 7.1 0 1 852.29 824.94
  L 859.08 824.05
  A 1.31 1.29 67.5 0 1 860.29 824.56
  L 879.25 849.95
  A 1.40 1.25 23.4 0 1 879.49 850.47
  Q 879.80 851.97 878.64 852.17
  Q 874.36 852.89 869.49 853.52
  Q 868.23 853.68 867.55 852.60
  Q 866.74 851.28 865.75 850.06
  Q 865.37 849.60 864.78 849.68
  L 851.21 851.53
  Q 850.73 851.60 850.57 852.05
  Z
  M 854.03 843.47
  A 0.35 0.35 0.0 0 0 854.40 843.95
  L 860.19 843.22
  A 0.35 0.35 0.0 0 0 860.42 842.67
  L 856.88 837.83
  A 0.35 0.35 0.0 0 0 856.27 837.91
  L 854.03 843.47
  Z"
/>
<path fill="#fafafb" d="
  M 810.17 852.41
  L 824.45 850.45
  Q 825.89 850.25 826.07 851.70
  L 826.86 858.19
  Q 827.01 859.39 825.81 859.56
  L 800.94 863.02
  A 1.24 1.24 0.0 0 1 799.53 861.96
  L 795.65 834.07
  Q 795.49 832.86 796.69 832.69
  L 805.49 831.44
  A 1.23 1.23 0.0 0 1 806.89 832.49
  L 809.56 851.95
  Q 809.63 852.48 810.17 852.41
  Z"
/>
<path fill="#fafafb" d="
  M 777.00 858.10
  Q 777.16 857.54 777.01 857.03
  A 0.92 0.92 0.0 0 0 775.86 856.41
  Q 771.65 857.67 771.35 855.63
  Q 771.00 853.21 770.71 850.85
  Q 770.53 849.41 771.97 849.21
  L 784.45 847.48
  A 1.43 1.43 0.0 0 1 786.07 848.71
  L 787.86 861.97
  Q 788.00 863.00 787.04 863.43
  Q 776.13 868.23 764.63 867.69
  C 755.31 867.26 749.92 861.30 750.25 852.17
  C 750.80 836.88 767.84 834.79 780.40 835.87
  A 1.85 1.85 0.0 0 1 782.03 837.23
  L 783.28 841.95
  Q 783.81 843.93 781.77 843.69
  Q 776.94 843.11 772.34 843.33
  C 767.68 843.55 761.16 846.19 761.44 851.87
  C 761.89 860.83 770.51 860.60 776.82 858.29
  Q 776.96 858.24 777.00 858.10
  Z"
/>
<path fill="#bf1e2d" d="
  M 854.03 843.47
  L 856.27 837.91
  A 0.35 0.35 0.0 0 1 856.88 837.83
  L 860.42 842.67
  A 0.35 0.35 0.0 0 1 860.19 843.22
  L 854.40 843.95
  A 0.35 0.35 0.0 0 1 854.03 843.47
  Z"
/>
<path fill="#fafafb" d="
  M 698.97 855.76
  L 704.55 845.89
  Q 704.82 845.41 705.37 845.34
  L 714.94 844.00
  A 1.14 1.14 0.0 0 1 716.20 844.85
  Q 716.44 845.79 715.94 846.56
  Q 710.71 854.76 705.01 863.64
  Q 704.75 864.05 704.82 864.54
  L 706.27 874.83
  Q 706.45 876.10 705.17 876.28
  L 696.34 877.54
  Q 694.93 877.73 694.74 876.33
  L 693.33 866.23
  A 1.38 1.37 16.8 0 0 692.87 865.38
  Q 685.16 858.44 677.47 851.52
  Q 676.77 850.89 676.78 850.60
  A 1.53 1.48 -4.0 0 1 678.10 849.13
  Q 682.72 848.48 687.79 847.75
  A 2.39 2.38 -28.0 0 1 689.73 848.34
  L 698.05 855.91
  Q 698.61 856.41 698.97 855.76
  Z"
/>
<path fill="#fafafb" d="
  M 658.64 860.41
  L 661.53 881.30
  A 1.05 1.05 0.0 0 1 660.63 882.48
  L 651.62 883.69
  A 1.25 1.25 0.0 0 1 650.21 882.62
  L 647.38 862.06
  Q 647.28 861.34 646.55 861.44
  L 639.40 862.46
  Q 637.88 862.67 637.67 861.15
  L 637.01 856.27
  Q 636.82 854.85 638.23 854.65
  L 665.25 850.91
  Q 666.88 850.69 667.09 852.31
  L 667.69 856.80
  Q 667.92 858.51 666.21 858.74
  L 659.21 859.65
  Q 658.54 859.74 658.64 860.41
  Z"
/>
<rect fill="#fafafb" x="-4.88" y="-15.32" transform="translate(622.39,872.32) rotate(-7.9)" width="9.76" height="30.64" rx="1.22"/>
<path fill="#fafafb" d="
  M 591.43 882.76
  L 605.27 880.81
  Q 606.97 880.57 607.20 882.27
  L 608.00 888.00
  Q 608.25 889.76 606.50 890.00
  L 581.94 893.37
  A 1.11 1.10 -7.8 0 1 580.69 892.43
  L 576.84 864.77
  A 1.61 1.60 -7.9 0 1 578.22 862.96
  L 586.31 861.86
  A 1.60 1.59 82.1 0 1 588.11 863.23
  L 590.67 882.19
  Q 590.76 882.85 591.43 882.76
  Z"
/>
<path fill="#fafafb" d="
  M 555.25 892.58
  L 542.22 894.40
  A 1.38 1.38 0.0 0 0 541.12 895.30
  L 539.97 898.46
  A 1.38 1.38 0.0 0 1 538.87 899.36
  L 530.63 900.51
  A 1.38 1.38 0.0 0 1 529.16 898.62
  L 541.55 868.73
  A 1.38 1.38 0.0 0 1 542.63 867.89
  L 549.66 866.91
  A 1.38 1.38 0.0 0 1 550.96 867.45
  L 569.99 892.97
  A 1.38 1.38 0.0 0 1 569.08 895.16
  L 559.86 896.45
  A 1.38 1.38 0.0 0 1 558.55 895.89
  L 556.56 893.13
  A 1.38 1.38 0.0 0 0 555.25 892.58
  Z
  M 544.68 886.41
  A 0.35 0.35 0.0 0 0 545.05 886.88
  L 550.85 886.12
  A 0.35 0.35 0.0 0 0 551.08 885.57
  L 547.49 880.68
  A 0.35 0.35 0.0 0 0 546.88 880.76
  L 544.68 886.41
  Z"
/>
<path fill="#fafafb" d="
  M 499.45 895.72
  C 502.79 896.11 507.54 895.27 506.98 890.85
  Q 505.98 882.96 504.75 874.74
  A 1.59 1.58 81.7 0 1 506.09 872.93
  L 514.01 871.82
  A 1.34 1.34 0.0 0 1 515.53 872.95
  Q 517.13 883.86 518.32 893.16
  C 519.61 903.23 505.45 904.84 498.71 905.21
  C 492.83 905.53 486.92 904.11 485.94 897.24
  Q 484.56 887.54 483.26 877.66
  A 1.57 1.56 -7.7 0 1 484.61 875.90
  L 492.35 874.88
  A 1.53 1.52 82.3 0 1 494.07 876.20
  Q 495.11 884.25 496.35 892.56
  C 496.59 894.18 497.77 895.53 499.45 895.72
  Z"
/>
<path fill="#fafafb" d="
  M 470.83 905.61
  L 474.36 905.24
  A 1.06 1.06 0.0 0 1 475.53 906.37
  L 475.20 911.41
  Q 475.15 912.02 474.58 912.21
  Q 466.52 914.98 460.05 911.03
  Q 459.56 910.73 458.99 910.84
  C 450.31 912.66 440.11 911.72 436.86 902.03
  C 434.41 894.69 435.47 886.29 442.91 882.45
  Q 449.59 879.00 458.37 879.25
  Q 470.96 879.60 473.26 891.52
  Q 474.86 899.79 470.52 905.04
  Q 469.98 905.69 470.83 905.61
  Z
  M 462.1051 893.8518
  A 6.03 6.03 0.0 0 0 455.3396 888.6604
  L 452.3653 889.0520
  A 6.03 6.03 0.0 0 0 447.1739 895.8175
  L 447.3149 896.8882
  A 6.03 6.03 0.0 0 0 454.0804 902.0796
  L 457.0547 901.6880
  A 6.03 6.03 0.0 0 0 462.2461 894.9225
  L 462.1051 893.8518
  Z"
/>
<path fill="#bf1e2d" d="
  M 544.68 886.41
  L 546.88 880.76
  A 0.35 0.35 0.0 0 1 547.49 880.68
  L 551.08 885.57
  A 0.35 0.35 0.0 0 1 550.85 886.12
  L 545.05 886.88
  A 0.35 0.35 0.0 0 1 544.68 886.41
  Z"
/>
<rect fill="#bf1e2d" x="-7.53" y="-6.57" transform="translate(454.71,895.37) rotate(-7.5)" width="15.06" height="13.14" rx="6.03"/>
</svg>
